<?xml version="1.0" encoding="UTF-8" standalone="no"?><!DOCTYPE svg PUBLIC "-//W3C//DTD SVG 1.1//EN" "http://www.w3.org/Graphics/SVG/1.1/DTD/svg11.dtd"><svg width="100%" height="100%" viewBox="0 0 1000 1000" version="1.1" xmlns="http://www.w3.org/2000/svg" xmlns:xlink="http://www.w3.org/1999/xlink" xml:space="preserve" xmlns:serif="http://www.serif.com/" style="fill-rule:evenodd;clip-rule:evenodd;stroke-linejoin:round;stroke-miterlimit:2;"><g><path d="M555.373,195.109l0.96,11.805c0,0 -4.287,11.268 9.768,11.268c6.13,0 8.404,-2.231 9.057,-4.677c0.791,-2.967 -0.806,-6.25 -0.806,-6.25l0.62,-11.699l-19.599,-0.447Z" style="fill:#6774ff;fill-rule:nonzero;"/><path d="M377.617,796.502c0,0 -296.14,2.13 -342.26,21.74c-70.02,29.78 300.81,33.52 241.11,66.82c-59.7,33.3 133.08,33.3 145.88,19.59c12.8,-13.71 -25.39,-32.32 21.62,-31.34c47.01,0.98 310.44,27.42 286.93,-0.98c-23.5,-28.4 155.89,-37.42 79.51,-54.07c-78.33,-17.07 -432.79,-21.76 -432.79,-21.76Z" style="fill:#f2f2f2;fill-rule:nonzero;"/><path d="M326.497,570.702c-60.01,34.03 -147.06,97.84 -234.8,46.62c-87.74,-51.22 -32.48,-143.41 29.66,-154.43c62.14,-11.02 -68.97,-119.6 -11.66,-179.33c57.31,-59.73 135.98,62.68 178.17,33.06c42.2,-29.63 117.32,209.46 38.63,254.08Z" style="fill:#e8e8e8;fill-rule:nonzero;"/><path d="M446.117,101.912c89.29,51.52 57.61,116.78 116.19,143.96c58.58,27.18 81.67,-29.3 156.53,-13.22c94.52,20.3 61.92,144.79 -37.69,268.94c-62.04,77.33 -152,49.04 -196.45,-40.91c-44.45,-89.95 -40.05,-164.86 -166.38,-228.03c-126.33,-63.17 25.95,-189.5 127.8,-130.74Z" style="fill:#e8e8e8;fill-rule:nonzero;"/><path d="M639.777,600.422c76.27,-37.52 120.45,-160.81 178.19,-149.82c57.74,10.99 117.28,171.15 18.6,176.86c-98.67,5.71 -94.08,100.51 -161.57,76.58c-67.49,-23.93 -66.75,-88.11 -35.22,-103.62Z" style="fill:#e8e8e8;fill-rule:nonzero;"/><path d="M220.577,774.122c-0.09,-0.41 -8.89,-41.17 -26.31,-58.12l3.07,-3.16c18.39,17.89 27.18,58.64 27.55,60.37l-4.31,0.91Z" style="fill:#6674ff;fill-rule:nonzero;"/><circle cx="195.807" cy="714.422" r="14.2" style="fill:#1631a4;"/><path d="M224.297,686.852l40.42,-5.5c0,0 -6.81,-70.02 -36.59,-93.52c0,0 -19.83,34.49 -3.83,99.02Z" style="fill:#ffbc47;fill-rule:nonzero;"/><path d="M247.557,760.082c-0.03,-0.85 -7.54,-104.79 -7.54,-104.79c8.4,18.78 11.8,101.12 11.94,104.62l-4.4,0.17Z" style="fill:#fe9720;fill-rule:nonzero;"/><path d="M273.487,710.652l13.58,1.97c0,0 11.49,-27.92 -0.92,-37.83c-0.01,0.01 -16.56,10.76 -12.66,35.86Z" style="fill:#ffbc47;fill-rule:nonzero;"/><path d="M271.077,762.312c-0.21,-2.29 6.85,-49.5 12.08,-72.93c0,0 -7.74,71.98 -7.69,72.52l-4.39,0.41Z" style="fill:#fe9720;fill-rule:nonzero;"/><path d="M318.317,801.132c-0.54,3.69 -11.77,6.95 -26.72,8.71c-2.22,0.26 -4.54,0.48 -6.9,0.68c-5.74,0.47 -11.84,0.71 -17.95,0.69c-1.97,-0.01 -3.95,-0.04 -5.91,-0.12c-17.48,-0.57 -34.33,-3.48 -42.89,-9.96c-1.18,-0.88 -20.08,-51.41 8.31,-53.37c28.41,-1.97 25.47,22.03 38.19,15.17c12.74,-6.86 2.94,-48.96 23.02,-43.58c20.08,5.39 -1.47,43.1 14.69,44.57c16.16,1.47 17.63,27.41 16.16,37.21Z" style="fill:#00008c;fill-rule:nonzero;"/><path d="M254.997,785.452c-6.8,0 -12.53,-1.87 -17.1,-5.58c-6.53,-5.31 -8.88,-13.01 -9.72,-17.37c-0.34,-1.75 0.94,-3.4 2.72,-3.5l0.01,0c1.45,-0.08 2.76,0.91 3.04,2.34c0.67,3.48 2.55,9.84 7.7,14c4.61,3.73 10.97,5 18.93,3.79c7.22,-1.1 12.7,-4.17 16.28,-9.13c5.19,-7.18 5.33,-16.6 5.03,-21.1c-0.1,-1.5 0.96,-2.81 2.44,-3.07l0.01,0c1.72,-0.29 3.31,0.97 3.42,2.71c0.35,5.34 0.12,16.23 -6.14,24.9c-4.54,6.28 -11.32,10.15 -20.16,11.5c-2.24,0.34 -4.4,0.51 -6.46,0.51Z" style="fill:#6674ff;fill-rule:nonzero;"/><path d="M266.737,811.202c-1.97,-0.01 -3.95,-0.04 -5.91,-0.12l-2.45,-25.85c-0.16,-1.62 1.03,-3.06 2.64,-3.2c0.09,-0.01 0.18,-0.01 0.28,-0.01c1.5,0 2.79,1.13 2.92,2.66l2.52,26.52Z" style="fill:#6674ff;fill-rule:nonzero;"/><path d="M308.057,776.182c0,0.44 -0.1,0.9 -0.31,1.31l-16.16,32.35c-2.22,0.26 -4.54,0.48 -6.9,0.68l17.8,-35.64c0.72,-1.45 2.5,-2.04 3.94,-1.32c1.03,0.51 1.63,1.55 1.63,2.62Z" style="fill:#6674ff;fill-rule:nonzero;"/><path d="M313.417,818.262l-8.81,0l0,-34.81c0,-3.22 2.61,-5.84 5.84,-5.84l21.59,0l0,8.81l-12.77,0c-3.22,0 -5.84,2.61 -5.84,5.84l0,26l-0.01,0Z" style="fill:#ffd648;fill-rule:nonzero;"/><path d="M705.207,359.472l23.42,-23.42c0.86,-0.86 2.03,-1.34 3.24,-1.34l109.71,0c4.08,0 6.13,4.94 3.24,7.83l-32.46,32.46c-1.79,1.79 -1.79,4.69 0,6.48l29.89,29.89c2.89,2.89 0.84,7.83 -3.24,7.83l-115.57,0c-1.22,0 -2.38,-0.48 -3.24,-1.34l-15.97,-15.97c-0.89,-0.89 -1.38,-2.11 -1.34,-3.37l0.97,-35.94c0.04,-1.17 0.52,-2.28 1.35,-3.11Z" style="fill:#1631a4;fill-rule:nonzero;"/><path d="M597.417,381.012c0,6.83 -0.32,13.59 -0.95,20.24c-0.28,2.95 -0.62,5.89 -1.01,8.81c-1.41,10.36 -3.57,20.49 -6.43,30.32c-0.26,0.94 -0.54,1.88 -0.84,2.82c-16.1,52.9 -52.27,97.05 -99.62,123.64c-18.45,10.36 -29.7,30.04 -29.7,51.21l0,34.71l-139.08,0l0,-29.45c0,-22 -12.18,-42.36 -31.8,-52.35c-5.16,-2.61 -10.18,-5.45 -15.09,-8.48c-60.9,-37.49 -101.5,-104.78 -101.47,-181.56c0.04,-117.47 98.43,-214.47 215.91,-212.89c112.48,1.51 203.9,90.19 209.78,201.55c0.19,3.79 0.3,7.59 0.3,11.43Z" style="fill:#284cbf;fill-rule:nonzero;"/><path d="M589.007,440.382c-0.26,0.94 -0.54,1.88 -0.84,2.82c-16.1,52.9 -52.27,97.05 -99.62,123.64c-18.45,10.36 -29.7,30.04 -29.7,51.21l0,22.62c-10.24,0.81 -19.02,1.45 -20.08,1.56c-2.57,0.25 -31.83,-10.52 -31.83,-10.52c0,0 28.13,-1.65 31.35,-17.13c3.19,-15.33 19.58,-48.49 57.77,-68.09c39.17,-20.1 74.77,-63.57 74.77,-63.57l-11.6,-16.72l22.28,-18.73l3.73,-9.14l3.77,2.05Z" style="fill:#123ba0;fill-rule:nonzero;"/><path d="M344.267,631.712c0,0 -8.06,12.59 -15.47,21.05l-9.02,0l0,-29.45c0,-22 -12.18,-42.36 -31.8,-52.35c-5.16,-2.61 -10.18,-5.45 -15.09,-8.48c0,0 45.05,17.2 53.6,37.17c5.02,11.71 -1.08,32.06 17.78,32.06Z" style="fill:#123ba0;fill-rule:nonzero;"/><path d="M559.217,381.012c0,9.9 -0.82,19.61 -2.42,29.06c-13.82,82.72 -85.74,145.75 -172.38,145.75c-96.54,0 -174.8,-78.27 -174.8,-174.8c0,-96.53 78.27,-174.8 174.8,-174.8c92.71,0 168.55,72.17 174.42,163.38c0.27,3.75 0.38,7.57 0.38,11.41Z" style="fill:#febb46;fill-rule:nonzero;"/><path d="M512.477,381.012c0,9.99 -1.15,19.73 -3.31,29.06c-13.16,56.73 -64.02,99.01 -124.76,99.01c-70.73,0 -128.06,-57.33 -128.06,-128.06c0,-70.73 57.33,-128.06 128.06,-128.06c66.88,0 121.78,51.27 127.55,116.63c0.35,3.75 0.52,7.57 0.52,11.42Z" style="fill:#ff873d;fill-rule:nonzero;"/><path d="M465.837,381.012c0,10.24 -1.89,20.04 -5.36,29.06c-11.68,30.63 -41.34,52.37 -76.06,52.37c-44.96,0 -81.42,-36.46 -81.42,-81.42c0,-44.96 36.46,-81.42 81.42,-81.42c41.09,0 75.06,30.44 80.62,70c0.54,3.71 0.8,7.53 0.8,11.41Z" style="fill:#284cbf;fill-rule:nonzero;"/><path d="M463.257,644.302l0,3.22c0,6.95 -5.64,12.59 -12.59,12.59l-124.17,0c-6.95,0 -12.59,-5.64 -12.59,-12.59l0,-3.22c0,-0.7 0.06,-1.38 0.18,-2.06c0.97,-5.98 6.17,-10.53 12.41,-10.53l124.17,0c6.24,0 11.44,4.55 12.41,10.53c0.12,0.68 0.18,1.36 0.18,2.06Z" style="fill:#f7c22d;fill-rule:nonzero;"/><path d="M463.077,642.242c-0.98,5.96 -6.17,10.52 -12.41,10.52l-124.17,0c-6.24,0 -11.43,-4.55 -12.41,-10.52c0.97,-5.98 6.17,-10.53 12.41,-10.53l124.17,0c6.24,0 11.44,4.56 12.41,10.53Z" style="fill:#ffd648;fill-rule:nonzero;"/><path d="M326.497,663.782c0,2.03 1.64,3.67 3.67,3.67l116.82,0c2.03,0 3.67,-1.64 3.67,-3.67c0,-2.03 -1.64,-3.67 -3.67,-3.67l-116.82,0c-2.03,0 -3.67,1.64 -3.67,3.67Z" style="fill:#eeeff3;fill-rule:nonzero;"/><path d="M326.497,671.122c0,2.03 1.64,3.67 3.67,3.67l116.82,0c2.03,0 3.67,-1.64 3.67,-3.67c0,-2.03 -1.64,-3.67 -3.67,-3.67l-116.82,0c-2.03,0 -3.67,1.65 -3.67,3.67Z" style="fill:#eeeff3;fill-rule:nonzero;"/><path d="M450.667,679.342l0,18.1c0,2.5 -2.04,4.54 -4.55,4.54l-5.05,0c-12.9,0 -23.34,10.44 -23.34,23.34l0,4.49c0,5.32 -4.32,9.62 -9.62,9.62l-37.56,0c-5.32,0 -9.62,-4.3 -9.62,-9.62l0,-4.49c0,-12.9 -10.44,-23.34 -23.34,-23.34l-6.54,0c-2.5,0 -4.54,-2.04 -4.54,-4.54l0,-18.1c0,-2.5 2.04,-4.54 4.54,-4.54l115.08,0c2.5,0 4.54,2.04 4.54,4.54Z" style="fill:#f7c22d;fill-rule:nonzero;"/><path d="M446.117,675.502l0,16.76c0,2.32 -1.88,4.22 -4.22,4.22l-4.69,0c-11.94,0 -21.64,9.68 -21.64,21.62l0,4.17c0,4.92 -3.98,8.92 -8.9,8.92l-34.81,0c-4.92,0 -8.92,-4 -8.92,-8.92l0,-4.17c0,-11.94 -9.68,-21.62 -21.64,-21.62l-6.05,0c-2.32,0 -4.22,-1.9 -4.22,-4.22l0,-16.76c0,-0.24 0.01,-0.47 0.06,-0.71l114.96,0c0.05,0.24 0.07,0.48 0.07,0.71Z" style="fill:#ffd648;fill-rule:nonzero;"/><path d="M341.227,769.302l95.69,0c5.08,0 9.2,4.12 9.2,9.2l0,7.06c0,5.08 -4.12,9.2 -9.2,9.2l-95.69,0c-5.08,0 -9.2,-4.12 -9.2,-9.2l0,-7.06c0,-5.08 4.12,-9.2 9.2,-9.2Z" style="fill:#1631a4;fill-rule:nonzero;"/><rect x="326.497" y="794.762" width="119.62" height="23.5" style="fill:#ffd648;"/><path d="M444.747,794.762c-1.6,2.64 -4.51,4.41 -7.83,4.41l-95.69,0c-3.32,0 -6.24,-1.76 -7.84,-4.41l111.36,0Z" style="fill:#f7c22d;fill-rule:nonzero;"/><path d="M349.897,782.032c0,3.11 -2.52,5.63 -5.63,5.63c-3.11,0 -5.63,-2.52 -5.63,-5.63c0,-3.11 2.52,-5.63 5.63,-5.63c3.11,0 5.63,2.52 5.63,5.63Z" style="fill:#febb46;fill-rule:nonzero;"/><path d="M347.767,782.032c0,1.93 -1.57,3.5 -3.5,3.5c-1.93,0 -3.5,-1.57 -3.5,-3.5c0,-1.93 1.57,-3.5 3.5,-3.5c1.93,0 3.5,1.57 3.5,3.5Z" style="fill:#ffd648;fill-rule:nonzero;"/><path d="M391.027,782.032c0,3.11 -2.52,5.63 -5.63,5.63c-3.11,0 -5.63,-2.52 -5.63,-5.63c0,-3.11 2.52,-5.63 5.63,-5.63c3.11,0 5.63,2.52 5.63,5.63Z" style="fill:#febb46;fill-rule:nonzero;"/><path d="M388.897,782.032c0,1.93 -1.57,3.5 -3.5,3.5c-1.93,0 -3.5,-1.57 -3.5,-3.5c0,-1.93 1.57,-3.5 3.5,-3.5c1.93,0 3.5,1.57 3.5,3.5Z" style="fill:#ffd648;fill-rule:nonzero;"/><path d="M433.627,782.032c0,3.11 -2.52,5.63 -5.63,5.63c-3.11,0 -5.63,-2.52 -5.63,-5.63c0,-3.11 2.52,-5.63 5.63,-5.63c3.11,0 5.63,2.52 5.63,5.63Z" style="fill:#febb46;fill-rule:nonzero;"/><path d="M431.497,782.032c0,1.93 -1.57,3.5 -3.5,3.5c-1.93,0 -3.5,-1.57 -3.5,-3.5c0,-1.93 1.57,-3.5 3.5,-3.5c1.93,0 3.5,1.57 3.5,3.5Z" style="fill:#ffd648;fill-rule:nonzero;"/><path d="M597.417,381.012c0,9.86 -0.68,19.57 -1.97,29.06l-38.65,0c1.6,-9.45 2.42,-19.15 2.42,-29.06c0,-3.83 -0.12,-7.65 -0.38,-11.43l38.27,0c0.2,3.79 0.31,7.59 0.31,11.43Z" style="fill:#13409b;fill-rule:nonzero;"/><path d="M559.217,381.012c0,9.9 -0.82,19.61 -2.42,29.06l-47.62,0c2.16,-9.33 3.31,-19.07 3.31,-29.06c0,-3.85 -0.18,-7.67 -0.51,-11.43l46.87,0c0.26,3.77 0.37,7.59 0.37,11.43Z" style="fill:#ea9421;fill-rule:nonzero;"/><path d="M512.477,381.012c0,9.99 -1.15,19.73 -3.31,29.06l-48.69,0c3.47,-9.02 5.36,-18.82 5.36,-29.06c0,-3.88 -0.26,-7.7 -0.81,-11.43l46.93,0c0.35,3.76 0.52,7.58 0.52,11.43Z" style="fill:#f27b11;fill-rule:nonzero;"/><path d="M465.837,381.012c0,10.24 -1.89,20.04 -5.36,29.06l-76.06,0c-11.18,0 -20.24,-9.06 -20.24,-20.24c0,-11.18 9.06,-20.24 20.24,-20.24l80.62,0c0.54,3.72 0.8,7.54 0.8,11.42Z" style="fill:#13409b;fill-rule:nonzero;"/><path d="M716.397,381.012c0,20.24 -12.49,20.24 -12.49,20.24l-319.5,0c-11.18,0 -20.24,-9.06 -20.24,-20.24c0,-11.18 9.06,-20.24 20.24,-20.24l319.5,0c0.01,-0.01 12.49,-0.01 12.49,20.24Z" style="fill:#ff873d;fill-rule:nonzero;"/><path d="M85.487,563.442c0,0 -12,73.16 -28.15,85.65c0,0 2.69,15.91 12.49,16.65c-0.01,0 28.39,-91 15.66,-102.3Z" style="fill:#1431a3;fill-rule:nonzero;"/><path d="M144.977,558.752c0,0 24.97,57.29 27.67,58.51c0,0 -2.69,9.79 -6.37,10.04c-3.67,0.24 -21.3,-68.55 -21.3,-68.55Z" style="fill:#01008a;fill-rule:nonzero;"/><path d="M144.977,558.752c0,0 20.81,64.63 26.44,70.51c0,0 0.24,10.77 -9.06,12.49l-17.38,-83Z" style="fill:#1431a3;fill-rule:nonzero;"/><path d="M70.307,774.682c0,0 13.47,17.87 15.18,15.91c1.71,-1.96 2.45,-4.41 2.94,-2.45c0.49,1.96 0.98,20.32 6.37,23.5c5.39,3.18 7.59,3.67 8.57,6.86c0.98,3.18 -28.89,3.43 -33.05,0.73c-4.16,-2.69 -13.95,-31.34 -13.22,-33.05c0.72,-1.7 13.21,-11.5 13.21,-11.5Z" style="fill:#01008a;fill-rule:nonzero;"/><path d="M70.307,774.682c0,0 16.36,-59.74 18.46,-66.1c2.1,-6.37 11.9,-21.06 12.63,-26.69c0.73,-5.63 28.15,5.39 28.15,5.39c0,0 -5.39,19.83 -9.55,29.13c-4.16,9.3 -32.86,71.87 -32.86,71.87c0,0 -0.46,7.21 -6.94,5.5c-6.46,-1.71 -9.89,-19.1 -9.89,-19.1Z" style="fill:#6675ff;fill-rule:nonzero;"/><path d="M126.367,779.832c0,0 -2.69,-102.83 -2.69,-106.87c0,-4.04 25.71,-8.81 29.01,-5.51c3.31,3.31 -5.24,112.98 -4.92,114.24c0.32,1.26 -0.32,7.59 -0.59,8.32c-0.28,0.73 -13.04,2.75 -13.77,1.29c-0.73,-1.47 -7.04,-11.47 -7.04,-11.47Z" style="fill:#6675ff;fill-rule:nonzero;"/><path d="M126.367,779.832c0,0 16.89,12.36 19.22,8.57c2.33,-3.79 2.08,-8.94 2.94,-8.57c0.86,0.37 1.04,11.02 14.26,15.97c13.22,4.96 14.51,9.92 8.45,11.02c-6.06,1.1 -51.41,-2.57 -52.33,-6.06c-0.92,-3.49 7.46,-20.93 7.46,-20.93Z" style="fill:#01008a;fill-rule:nonzero;"/><path d="M73.047,528.392c0,0 -31.2,-12.12 -11.46,-45.48c19.74,-33.36 23.35,-31.58 23.53,-50.5c0.18,-18.91 11.75,-20.01 17.26,-25.34c5.51,-5.32 13.22,-21.67 30.85,-15.24c17.63,6.43 18.61,17.99 17.75,21.67c0,0 7.4,2.02 3.91,13.96c-3.49,11.94 -15.42,39.29 -20.93,42.05c-5.5,2.75 -60.91,58.88 -60.91,58.88Z" style="fill:#01008a;fill-rule:nonzero;"/><path d="M136.717,461.802c0,0 35.38,-23.44 35.93,-25.46c0.55,-2.02 3.37,-43.58 2.26,-45.23c-1.1,-1.65 -6.24,-4.59 -6.61,-7.9c-0.37,-3.31 2.2,-3.12 1.65,-6.98c-0.55,-3.86 -4.49,-11.22 -1.1,-12.49c3.39,-1.27 20.38,0.37 23.14,8.81c2.75,8.45 -3.31,17.81 -3.12,20.2c0.18,2.39 3.86,49.64 2.39,52.03c-1.47,2.39 -44.8,38.31 -46.27,38.13c-1.48,-0.18 -8.27,-21.11 -8.27,-21.11Z" style="fill:#6675ff;fill-rule:nonzero;"/><path d="M130.167,455.832c0,0 -3.92,1.92 -4.41,5.85c-0.16,1.23 -1.98,1.47 -4.41,1.2c-5.24,-0.56 -13.22,-3.41 -13.22,-3.41l3.54,-14.69l14.56,5.13l2.1,0.75l1.84,5.17Z" style="fill:#6675ff;fill-rule:nonzero;"/><path d="M163.827,670.642c-9.05,1.95 -6.11,9.05 -6.11,9.05c-2.86,2.54 -5.99,3.53 -9.06,3.58c-8.23,0.21 -15.92,-6.11 -16.38,-6.49c-0.01,-0.03 -0.03,-0.03 -0.03,-0.03l0,10.78c-17.38,18.6 -25.94,5.38 -31.08,0.97c-5.14,-4.41 -7.59,6.38 -7.59,6.38c-20.82,1.44 -21.05,-13.95 -21.05,-14.66l0,-0.03c-9.06,0.97 -8.81,-12.74 -8.81,-12.74c18.11,-20.32 21.78,-104.02 21.78,-104.02c2.69,-8.04 56.07,-23.78 59.49,-4.69c3.42,19.1 19.35,83.98 21.78,85.93c2.45,1.97 6.12,24 -2.94,25.97Z" style="fill:#01008a;fill-rule:nonzero;"/><path d="M147.047,507.322c-2.12,3.73 -4.16,7.39 -3.72,8.83c0.25,0.79 1.29,5.8 2.5,12.19c0.01,0.01 0.01,0.03 0.01,0.04c2.39,12.68 5.35,30.72 3.72,32.01c-12.57,10.11 -40.13,7.93 -55.78,5.35c-6.65,-1.09 -11.15,-2.26 -11.41,-2.59c-0.54,-0.65 0.79,-29.63 2,-53.75c0.87,-17.35 1.67,-32.18 1.67,-32.18c0,0 -0.93,-2.44 3.29,-4.33c4.23,-1.91 39.66,-13.12 47.39,-11.09c7.7,2.03 15.97,33.96 13.95,38.75c-0.79,1.85 -2.19,4.26 -3.55,6.65c0.01,0 -0.02,0.05 -0.07,0.12Z" style="fill:#ffd648;fill-rule:nonzero;"/><path d="M143.337,516.152c0.25,0.79 1.29,5.8 2.5,12.19c-1.41,-7.61 -12.43,-11.27 -13.34,-11.28c7.07,0.53 13.76,-8.62 14.56,-9.74c-2.12,3.73 -4.17,7.39 -3.72,8.83Z" style="fill:#ffbb4a;fill-rule:nonzero;"/><path d="M130.167,455.832c0,0 -3.92,1.92 -4.41,5.85c-0.16,1.23 -1.98,1.47 -4.41,1.2c0.78,-1.84 1.7,-4.17 2.13,-5.74c0.81,-2.94 -1.94,-3.26 -1.94,-3.26c0,0 2.57,-2.19 4.69,-3.97l2.1,0.75l1.84,5.17Z" style="fill:#4f5cd2;fill-rule:nonzero;"/><path d="M137.717,535.942c0,0 -0.46,2.61 -3.03,5.55c-2.04,2.34 -29.06,18.02 -40.91,24.25c-6.65,-1.09 -11.15,-2.26 -11.41,-2.59c-0.54,-0.65 0.79,-29.63 2,-53.75l9.74,-12.87c0,0 -4.82,50.09 -5.35,51.19c-0.51,1.11 48.96,-11.78 48.96,-11.78Z" style="fill:#ffbb4a;fill-rule:nonzero;"/><path d="M105.197,496.692l39.78,-8.08l-8.26,47.37l-38.5,9.55l6.98,-48.84Z" style="fill:#8dbec6;fill-rule:nonzero;"/><path d="M136.727,537.082c-3.67,3.13 -5.05,6.24 -8.68,8.45c-3.63,2.2 -14.65,5.88 -15.01,6.05c-0.37,0.19 -38.38,19.83 -44.26,19.1c-5.88,-0.73 -7.89,-8.81 -6.96,-13.57c0.91,-4.79 16.7,-70.7 17.98,-74.18c1.29,-3.5 3.63,-8.15 6.87,-8.12c3.23,0.04 10.21,7.57 6.73,27.03c-1.32,7.34 -2.86,14.84 -4.26,21.34c-2.31,10.75 -4.17,18.82 -3.82,19.05c0.13,0.09 1.79,-0.16 4.25,-0.6c7.77,-1.37 23.47,-4.54 23.47,-4.54c0,0 4.47,-9.18 8.56,-9.36c4.11,-0.19 4.11,2.38 5.2,2.2c1.12,-0.19 10.66,-6.1 11.94,-5.52c1.28,0.55 1.66,9.54 -2.01,12.67Z" style="fill:#6675ff;fill-rule:nonzero;"/><path d="M105.197,467.672c0,0 0.41,-13.58 4.06,-12.85c3.65,0.73 8.87,5.23 17.21,4.63c0,0 1.98,-1.04 1.49,3.53c-0.49,4.57 -0.73,6.53 -0.73,6.53c0,0 -8.2,8.69 -22.03,-1.84Z" style="fill:#fff;fill-rule:nonzero;"/><path d="M144.977,424.342c0,0 -2.2,22.03 -5.02,26.32c-2.82,4.28 -2.69,4.9 -4.9,5.39c-2.2,0.49 -13.95,-1.1 -17.99,-4.41c-4.04,-3.31 -13.83,-8.45 -13.83,-8.45l-2.08,-18.85l18.85,-5.39c0,0 24.6,-2.32 24.97,5.39Z" style="fill:#6675ff;fill-rule:nonzero;"/><path d="M114.007,431.812c0,0 2.14,-3.89 8.48,-1.77c6.33,2.11 13.31,5.78 20.84,0l1.65,-5.69l-10.83,-1.93l-20.14,2.85l0,6.54Z" style="fill:#4f5cd2;fill-rule:nonzero;"/><path d="M114.007,431.812c0,0 -2.57,-4.9 -6.37,-2.33c-3.79,2.57 -2.08,12.24 4.28,11.87l-0.94,6.31l-10.69,0.55l-2.08,-27.3l29.26,-12l21.3,2.94l-3.79,12.49c0,0 -1.71,9.43 -14.08,6.73c-12.36,-2.69 -15.05,-3.91 -16.89,0.74Z" style="fill:#01008a;fill-rule:nonzero;"/><path d="M108.137,432.052c0,0 3.97,-0.18 2.96,5.33c0,0 0.14,-3.77 -2.96,-5.33Z" style="fill:#4f5cd2;fill-rule:nonzero;"/><path d="M89.557,541.622l0,0.01l-11.78,2.79c0,0 7.8,-8.33 10.99,-21.68l0.37,0.43c-2.31,10.75 -4.17,18.82 -3.82,19.05c0.12,0.09 1.78,-0.16 4.24,-0.6Z" style="fill:#4f5cd2;fill-rule:nonzero;"/><path d="M91.697,617.322c-0.6,3.92 -1.28,7.7 -2.01,11.31c0.98,-6.14 1.82,-10.42 2.01,-11.31Z" style="fill:#01008a;fill-rule:nonzero;"/><path d="M93.567,694.882c-20.82,1.44 -21.05,-13.95 -21.05,-14.66l0,-0.03c0,0 10.72,-19.68 17.17,-51.56c-3.1,19.42 -7.49,57.49 3.88,66.25Z" style="fill:#01016d;fill-rule:nonzero;"/><path d="M148.647,683.272c-8.23,0.21 -15.92,-6.11 -16.38,-6.49c-0.01,-0.03 -0.03,-0.03 -0.03,-0.03l-1.22,-68.31c0.01,0 5.88,69.84 17.63,74.83Z" style="fill:#01016d;fill-rule:nonzero;"/><path d="M596.457,401.252c-0.28,2.95 -0.62,5.89 -1.01,8.81c-1.54,11.36 -4,22.43 -7.27,33.14c-3.95,-1.54 -6.67,-3.45 -6.67,-3.45l5.82,-38.5l9.13,0Z" style="fill:#123ba0;fill-rule:nonzero;"/><path d="M528.897,401.252c-0.7,20.95 -1.16,43.77 -1.16,43.77c-12.3,11.38 -25.68,4.35 -25.68,4.35c0,0 -1.37,-23.94 -2.64,-48.12l29.48,0Z" style="fill:#ea9421;fill-rule:nonzero;"/><path d="M627.837,360.762c-1.79,7.96 -6.43,24.34 -11.16,40.48l-29.35,0l5.16,-34.18c0,0 -59.35,-0.88 -61.28,0c-0.88,0.41 -1.69,16.64 -2.29,34.18l-29.48,0c-0.82,-15.45 -1.6,-31.01 -1.95,-40.48l130.35,0Z" style="fill:#f27b11;fill-rule:nonzero;"/><path d="M526.907,316.962c0,0 -34.9,-9.84 -40.43,-17.38c-4.23,-5.79 30.88,-81.07 32.6,-80.94c1.72,0.15 2.86,41.17 2.86,41.17c0,0 -2.48,7.24 -4.77,14.47c-0.04,0.12 -0.07,0.23 -0.12,0.35c-2.09,6.62 -4,13.15 -3.64,14.01c0.34,0.85 2.2,2.39 4.1,3.82c2.19,1.65 4.44,3.1 4.44,3.1c5.13,1.26 4.96,21.4 4.96,21.4Z" style="fill:#6675ff;fill-rule:nonzero;"/><path d="M600.717,315.462c0,0 3,-23.05 5.51,-24.43c0,0 2.78,-1.35 5.05,-3.04l0.03,-0.01c0.57,-0.43 1.12,-0.88 1.57,-1.34l0.04,-0.04c0.88,-0.88 1.41,-1.76 1.2,-2.54c-0.34,-1.25 -1.72,-6.33 -3.14,-11.53c-1.7,-6.27 -3.47,-12.71 -3.47,-12.71c0,0 2.38,-40.95 4.58,-40.4c2.2,0.56 23.87,61.7 25.34,71.61c1.48,9.92 -36.71,24.43 -36.71,24.43Z" style="fill:#6675ff;fill-rule:nonzero;"/><path d="M498.807,456.662c0,0 -20.57,42.78 -18.73,44.8c1.84,2.02 44.07,-21.67 45.35,-24.97c1.29,-3.31 -9.92,-29.01 -9.92,-29.01l-16.7,9.18Z" style="fill:#1631a4;fill-rule:nonzero;"/><path d="M606.227,448.582c0,0 10.28,45.54 8.81,48.29c-1.47,2.75 -41.86,-28.28 -41.31,-32.13c0.55,-3.86 18.91,-20.75 18.91,-20.75l13.59,4.59Z" style="fill:#1631a4;fill-rule:nonzero;"/><path d="M518.217,228.732c0,0 -0.98,-9.92 1.84,-11.02c2.82,-1.1 40.03,-10.04 40.76,-10.53c0.73,-0.49 11.04,0.02 13.55,0.02c2.51,0 36.89,10.14 37.74,12.22c0.86,2.08 -9.55,95.73 -11.75,97.2c-2.2,1.47 -70.51,2.2 -71.24,0c-0.74,-2.21 -10.75,-84.96 -10.9,-87.89Z" style="fill:#ffd648;fill-rule:nonzero;"/><path d="M556.333,203.914l-4.326,10.128c0,0 4.9,6.24 13.71,6.24c8.81,0 10.68,-10.257 10.68,-10.257l-2.013,-6.379l-18.051,0.268Z" style="fill:#6675ff;fill-rule:nonzero;"/><path d="M553.636,209.162c0,0 2.641,7.57 12.071,11.12c0,0 -6.11,7.39 -8.94,12.36c0.01,0 -8.691,-14.92 -3.131,-23.48Z" style="fill:#fff;fill-rule:nonzero;"/><path d="M575.827,207.447c0,0 -3.14,9.645 -10.12,12.835c0,0 9.92,5.63 11.02,12.36c0,0 4.18,-19.315 -0.9,-25.195Z" style="fill:#fff;fill-rule:nonzero;"/><path d="M531.127,295.812l-4.22,-30.85l76.02,0c0,0 -5.14,33.05 -5.51,32.87c-0.37,-0.19 -66.29,-2.02 -66.29,-2.02Z" style="fill:#ffbb4a;fill-rule:nonzero;"/><path d="M518.047,279.042l90.93,0l-8.63,37.58l-73.44,0l-8.86,-37.58Z" style="fill:#ff873d;fill-rule:nonzero;"/><path d="M609.537,451.522c-11.75,5.32 -25.52,-4.77 -25.52,-4.77l12.44,-85.98c0,0 -67.35,-1.06 -69.55,0c-2.2,1.04 -3.92,92.22 -3.92,92.22c-13.95,13.47 -29.13,5.14 -29.13,5.14c0,0 -6.13,-111.39 -5.39,-115.56c0.73,-4.16 40.16,-24.13 40.16,-24.13l71.33,0c0,0 36.87,23.4 37.53,29.28c0.65,5.86 -27.95,103.8 -27.95,103.8Z" style="fill:#01008a;fill-rule:nonzero;"/><path d="M526.907,316.962c0,1.8 1.46,3.27 3.27,3.27l66.97,0c1.72,0 3.12,-1.4 3.12,-3.12l0,-0.15c0,-0.19 -0.15,-0.35 -0.35,-0.35l-72.66,0c-0.2,0.01 -0.35,0.16 -0.35,0.35Z" style="fill:#febb46;fill-rule:nonzero;"/><path d="M517.507,292.472l-10.06,-5.96c0,0 6.55,-2.95 9.61,-11.87c-2.09,6.62 -4,13.15 -3.64,14.01c0.33,0.86 2.19,2.4 4.09,3.82Z" style="fill:#cbcbcb;fill-rule:nonzero;"/><path d="M612.927,286.602c0.88,-0.88 1.41,-1.76 1.2,-2.54c-0.34,-1.25 -1.72,-6.33 -3.14,-11.53c3.22,7.46 8.11,8.87 8.11,8.87l-6.17,5.2Z" style="fill:#cbcbcb;fill-rule:nonzero;"/><path d="M598.487,344.942c-0.31,2.06 -2.03,15.82 -2.03,15.82c0,0 -67.35,-1.06 -69.55,0c0,0 -0.37,-14.43 -3.29,-18.3c0.65,0.46 21.61,15.41 29.73,15.04c8.26,-0.37 11.75,-2.38 11.75,-2.38c0,0 8.99,3.48 13.4,3.85c4.33,0.37 19.34,-11.72 19.99,-14.03Z" style="fill:#00005b;fill-rule:nonzero;"/><path d="M598.527,344.692c0,0.01 0,0.06 -0.01,0.15c0,0.03 -0.01,0.06 -0.03,0.1c0.01,-0.13 0.03,-0.2 0.04,-0.25Z" style="fill:#01008a;fill-rule:nonzero;"/><path d="M476.467,769.672l4.66,-2.21l16.4,57.54l-4.65,3.67l-16.41,-59Z" style="fill:#284cbf;fill-rule:nonzero;"/><path d="M497.527,825.002l51.41,0l0,3.67l-56.06,0l4.65,-3.67Z" style="fill:#284cbf;fill-rule:nonzero;"/><path d="M559.767,799.832l3.49,13.79l33.08,13.77l11.1,-16.16l-15.18,-15.79c0.02,-0.01 -23.67,2.35 -32.49,4.39Z" style="fill:#ffbb48;fill-rule:nonzero;"/><path d="M604.387,775.052l-2.39,15.23c0,0 -5.49,5.33 -12.49,-1.09c-0.35,-0.32 -0.72,-0.63 -1.09,-0.93l-0.01,0c-0.01,-0.01 -0.06,-0.04 -0.12,-0.09c-0.12,-0.1 -0.23,-0.19 -0.37,-0.25c-0.09,-0.06 -0.18,-0.13 -0.26,-0.21c-7.01,-4.8 -16.83,-4 -16.83,-4l10.33,-6.52l11.85,-7.49l11.38,5.35Z" style="fill:#6675ff;fill-rule:nonzero;"/><path d="M708.967,813.462l0,0.01c-3.88,8.59 -7.43,14.82 -7.43,14.82c0,0 -61.52,4.23 -83.73,0.91c-2.23,-0.34 -4.26,-0.9 -6.08,-1.63c-16.29,-6.58 -16.88,-27.4 -16.88,-27.4c0,0 10.47,-20.18 17.22,-23.77c6.76,-3.6 45.95,0.29 51.46,0.65c5.51,0.38 51.78,-8.43 52.71,-8.43c6.64,9.53 -0.78,30.48 -7.27,44.84Z" style="fill:#fff;fill-rule:nonzero;"/><path d="M587.607,794.332c0,0 14.58,-20.97 16.79,-20.86c2.2,0.11 9.36,3.78 9.36,3.78c0,0 -9.73,21.48 -15.24,22.77c-5.51,1.29 -10.91,-5.69 -10.91,-5.69Z" style="fill:#febb46;fill-rule:nonzero;"/><path d="M553.487,801.132c0,0 7.94,-2.25 8.67,-0.94c0.73,1.31 1.1,8.84 1.1,8.84l-9.77,-7.9Z" style="fill:#6675ff;fill-rule:nonzero;"/><path d="M543.047,800.182c0,0 -17.25,-5.48 -20.37,-5.67c-3.12,-0.19 -17.26,9.36 -19.46,14.51c-2.2,5.14 2.2,0.18 8.45,0c6.24,-0.18 10.65,4.22 20.75,2.39l10.1,-1.84l0.53,-9.39Z" style="fill:#6675ff;fill-rule:nonzero;"/><path d="M530.027,813.612c0,0 2.99,-11.38 10.77,-14.14c7.78,-2.75 13.41,2.23 13.41,2.23c0,0 -16.83,4.75 -17.39,17.97l-6.79,-6.06Z" style="fill:#1631a4;fill-rule:nonzero;"/><path d="M708.967,813.462l0,0.01c-3.88,8.59 -7.43,14.82 -7.43,14.82c0,0 -61.52,4.23 -83.73,0.91c-2.23,-0.34 -4.26,-0.9 -6.08,-1.63c9.08,-8.58 23.33,-20.86 23.33,-20.86c0,0 2.51,11.03 1.54,15.57c-0.98,4.54 65.04,-7.37 70.96,-20.14l1.41,11.32Z" style="fill:#cbcbcb;fill-rule:nonzero;"/><path d="M536.817,819.672c0,0 49.28,34.7 59.53,34.52c10.25,-0.18 36.81,-31.9 36.81,-31.9c0,0 9.78,-23.44 -12,-31.69c-8.08,-3.06 -27.24,29.26 -28.34,29.07c-1.1,-0.18 -38.62,-17.97 -38.62,-17.97c0,0 -16.09,-2.59 -17.38,17.97Z" style="fill:#ffd648;fill-rule:nonzero;"/><path d="M587.657,787.732c-7.01,-4.8 -16.83,-4 -16.83,-4l10.33,-6.52l2.45,-0.44c-0.19,0.21 -3.63,2.32 -0.88,5.99c1.89,2.53 3.88,4.19 4.93,4.97Z" style="fill:#4f5cd2;fill-rule:nonzero;"/><path d="M553.527,745.862c0,0 1.84,27.91 5.51,32.87c3.67,4.96 5.88,7.34 7.34,7.16c1.47,-0.18 27.54,-14.87 27.54,-14.87c0,0 2.75,-23.69 2.39,-24.24c-0.37,-0.55 -38.74,-8.81 -39.29,-8.45c-0.55,0.37 -3.94,1.83 -3.49,7.53Z" style="fill:#6675ff;fill-rule:nonzero;"/><path d="M554.997,745.672c0,0 6.22,-0.88 9.41,3.27c3.19,4.15 14.28,4.07 14.28,4.07c0,0 1.65,-16.62 -5.97,-17.26c-7.62,-0.64 -18.27,1.93 -18.27,1.93l0.55,7.99Z" style="fill:#4f5cd2;fill-rule:nonzero;"/><path d="M554.997,745.672c0,0 2.02,-4.22 5.32,-2.02c3.31,2.2 6.98,13.95 15.97,13.59l9,-0.37c0,0 3.67,-6.24 5.88,-2.39c2.2,3.86 -0.92,13.95 -6.24,14.14l4.61,4.85l6.81,-2.64c0,0 -0.03,-6.79 1.99,-7.9c2.02,-1.1 14.69,-11.75 6.24,-28.09c-8.45,-16.34 -32.5,-14.14 -42.23,-10.83c-9.73,3.31 -10.65,10.1 -10.65,10.1c0,0 -9,-0.73 -8.63,6.98c0.37,7.71 11.52,16.49 11.52,16.49l0.41,-11.91Z" style="fill:#1631a4;fill-rule:nonzero;"/><path d="M590.527,757.882c0,0 -3.95,-0.83 -4.77,4.96c0,0 2.02,-4.13 4.77,-4.96Z" style="fill:#4f5cd2;fill-rule:nonzero;"/><path d="M837.337,704.422c0,0 1.22,-21.79 5.63,-22.77c4.41,-0.98 57.78,11.02 57.53,12.98c-0.24,1.96 -32.28,10.57 -36.72,15.67c-4.45,5.09 -5.14,10.77 -5.14,10.77l-21.3,-16.65Z" style="fill:#1532a4;fill-rule:nonzero;"/><path d="M863.777,720.582l-4.89,74.42l-39.16,0l16.14,-92.78c0,0 5.24,-2.86 12.9,1.57l0.01,0.01c4.38,2.55 9.57,7.5 15,16.78Z" style="fill:#1532a4;fill-rule:nonzero;"/><path d="M863.777,719.342l-4.89,74.42l-24.36,0c-0.63,-0.51 -0.98,-0.82 -0.98,-0.82c0,0 14.32,-7.15 17.99,-13.13c3.67,-5.99 7.23,-57.77 7.09,-59.98c-0.12,-2.16 -9.46,-16.64 -9.86,-17.26c4.39,2.53 9.58,7.48 15.01,16.77Z" style="fill:#002a93;fill-rule:nonzero;"/><path d="M909.357,758.622c0,0 7,-20.66 11.18,-20.45c4.19,0.22 52.42,17.37 52.94,20.19c0.51,2.82 -34.74,2.77 -36.36,4.98c-1.62,2.21 -9.54,10.79 -10.26,10.67c-0.73,-0.12 -17.5,-15.39 -17.5,-15.39Z" style="fill:#1532a4;fill-rule:nonzero;"/><path d="M930.377,772.002c0,0 -26.69,18.95 -49.75,35.08c0,0 -0.01,0.01 -0.06,0.03c-17.05,11.93 -32.1,22.3 -32.88,22.3l-138.62,0l3.08,-11.83l12.33,-47.3c21.17,-0.63 41.38,16.16 41.38,16.16c0,0 67.07,7.59 72.46,8.33c5.39,0.73 67.82,-38.44 67.82,-38.44c19.34,-2.46 24.24,15.67 24.24,15.67Z" style="fill:#01008a;fill-rule:nonzero;"/><path d="M880.567,807.102c-17.05,11.93 -32.1,22.3 -32.88,22.3l-138.62,0l3.08,-11.83c5.45,-12.09 10.46,-22.46 11.52,-22.58c0,0 -7.02,23.27 -2.61,26.21c4.41,2.94 119.72,2.44 128.77,0c8.78,-2.37 29.45,-13.41 30.74,-14.1Z" style="fill:#00005b;fill-rule:nonzero;"/><path d="M713.707,769.042c0,0 -9.58,56.47 -13.27,59.33c0,0 -0.2,3.37 8.06,2.11c0,0 29.34,-54.94 14.51,-64.06c-4.18,-2.57 -9.3,2.62 -9.3,2.62Z" style="fill:#febb46;fill-rule:nonzero;"/><path d="M333.467,899.772c0,0 -33.95,-42.42 -10.3,-72.28c0.01,0 25.23,24.36 10.3,72.28Z" style="fill:#ffbc47;fill-rule:nonzero;"/><path d="M333.467,899.772c0,0 -13.2,-40.38 16.43,-53.11c0,0 9.01,28.86 -16.43,53.11Z" style="fill:#ffd648;fill-rule:nonzero;"/><path d="M672.477,865.512c0,0 -26.53,-33.16 -8.05,-56.49c0.01,0 19.72,19.03 8.05,56.49Z" style="fill:#ffbc47;fill-rule:nonzero;"/><path d="M672.477,865.512c0,0 -10.31,-31.56 12.84,-41.51c0,0 7.04,22.55 -12.84,41.51Z" style="fill:#ffd648;fill-rule:nonzero;"/><path d="M555.466,196.255c0,0 3.716,8.169 9.577,8.38c5.859,0.212 9.96,-9.092 9.96,-9.092l-10.37,2.119l-9.167,-1.407Z" style="fill:#525bd3;fill-rule:nonzero;"/><path d="M550.505,184.882c0,0 1.859,9.44 2.862,10.158c1.002,0.72 8.868,5.007 11.588,4.862c2.721,-0.142 11.15,-4.576 12.587,-6.292c1.438,-1.716 4.15,-23.604 4.15,-24.895c0,-1.287 -21.599,-24.608 -21.599,-24.608c0,0 -10.016,12.592 -10.3,13.008c-0.286,0.415 -3.29,13.745 0.712,27.767Z" style="fill:#6774ff;fill-rule:nonzero;"/><path d="M548.443,171.007c0,0 -2.8,-1.146 -4.955,1.004c-2.157,2.15 1.102,10.269 6.341,10.282c5.242,0.013 0,-6.424 0,-6.424l-1.386,-4.862Z" style="fill:#6774ff;fill-rule:nonzero;"/><path d="M581.506,170.71c0,0 5.288,-0.699 5.216,2.057c-0.052,1.791 -1.022,8.809 -3.6,9.534c-2.576,0.722 -3.159,0 -3.159,0l0,-8.865l1.543,-2.726Z" style="fill:#6774ff;fill-rule:nonzero;"/><path d="M546.355,172.011c0,0 1.059,1.703 2.775,0c1.716,-1.703 0.106,-3.964 1.177,-4.287c1.071,-0.32 5.685,-2.761 4.831,-4.955c-0.854,-2.191 0.854,-3.647 1.499,-3.097c0.643,0.552 1.071,0.292 1.611,-0.111c0.539,-0.402 1.938,3.717 4.336,3.438c2.397,-0.279 2.862,3.004 4.255,2.681c1.394,-0.32 3.177,3.464 5.575,2.901c2.395,-0.565 2.248,3.518 3.969,3.425c1.722,-0.093 3.327,1.394 4.775,1.61c0.73,0.163 1.492,0.098 2.181,-0.185l-0.62,-6.814l-9.34,-12.189c0,0 -20.886,-6.976 -21.766,-7.087c-0.878,-0.111 -11.39,12.339 -11.39,12.339l6.132,12.331Z" style="fill:#525bd3;fill-rule:nonzero;"/><path d="M557.659,156.699c0,0 1.572,5.149 4.863,5.291c3.288,0.142 2.717,2.15 5.009,2.292c2.292,0.141 3.433,3.432 5.575,3.004c2.144,-0.429 2.193,3.257 5.295,3.339c3.105,0.08 2.052,0.155 3.097,0.08c1.048,-0.075 0.336,2.589 1.859,2.731c1.525,0.142 -1.24,7.323 -1.647,8.149c-0.288,0.583 -1.729,0.708 -1.729,0.708l-1.894,10.029c0,0 5.345,2 5.27,-1.146c-0.073,-3.146 1.933,-0.57 5.365,-1.574c3.43,-1.004 -0.428,-4.576 4.292,-4.576c4.72,0 -1.146,-5.44 2.429,-7.582c3.574,-2.142 -0.287,-4.199 2.149,-6.814c2.434,-2.614 -1.145,-4.199 2.285,-6.343c3.432,-2.142 -1.283,-5.575 0.72,-9.291c2,-3.717 0.859,-7.154 -1.859,-7.58c-2.72,-0.429 -1.146,-3.58 1.572,-7.296c2.72,-3.717 -3.716,-6.295 -7.154,-5.154c-3.438,1.138 0.862,-6.721 -3.574,-8.008c-4.434,-1.291 -3.717,2.575 -7.296,1.858c-3.58,-0.72 3.587,-5.291 -2.646,-7.867c-6.23,-2.578 -5.938,2.001 -8.8,1.859c-2.862,-0.145 -3.717,-5.291 -7.154,-4.008c-3.438,1.282 -2.576,4.008 -6.009,3.863c-3.432,-0.142 -4.008,-4.718 -7.866,-3.004c-3.858,1.716 -3.146,5.296 -5.154,6.728c-2.005,1.43 -2.862,-1.579 -5.004,1.425c-2.142,3.004 0.284,4.15 -2.292,5.574c-2.575,1.425 -4,0.718 -4.72,3.717c-0.718,2.996 2.15,3.716 0,5.146c-2.15,1.432 -5.866,0.142 -4.72,2.578c1.145,2.434 -0.426,4.15 -2.001,6.15c-1.571,2 -1.429,4.863 0,6.15c1.433,1.288 1.433,2.15 1.288,5.012c-0.142,2.86 -2.717,3.288 -0.717,6.151c2,2.862 3.716,2.57 3.432,5.721c-0.286,3.154 -0.428,6.008 2.434,7.007c2.862,0.996 3.288,-0.712 4.862,2.576c1.572,3.29 2.811,6.15 5.629,6.436c2.818,0.284 5.123,-0.854 5.613,1.146c0.488,2 4.372,2.873 4.372,2.873l-2.973,-11.769c0,0 -4.627,-2.991 -4.057,-3.995c0.57,-1.001 1.432,-1.425 0.429,-3.004c-1.004,-1.579 -0.571,-3.858 0.141,-3.283c0.22,0.14 0.473,0.214 0.733,0.214c0.692,0 1.281,-0.529 1.355,-1.215c0,-1.004 1.239,-4.87 2.78,-5.296c1.543,-0.428 4.436,-3.574 2.57,-6.008c-1.863,-2.436 2.274,0.722 3.848,-2.994Z" style="fill:#01008a;fill-rule:nonzero;"/><path d="M563.593,185.646l3.938,0c0,0 -1.647,2.65 -3.097,2.859c-1.448,0.212 -1.858,-2.217 -1.858,-2.217l1.017,-0.642Z" style="fill:#525bd3;fill-rule:nonzero;"/><path d="M560.756,193.225c2.623,-0.327 5.276,-0.327 7.898,0c-2.589,0.679 -5.309,0.679 -7.898,0Z" style="fill:#525bd3;fill-rule:nonzero;"/><path d="M563.185,194.8l2.885,0c-0.802,0.766 -2.085,0.766 -2.885,0Z" style="fill:#525bd3;fill-rule:nonzero;"/><path d="M545.984,173.629c0,0 1.43,-0.211 1.783,2.395c0.354,2.609 -0.501,2.22 -0.501,2.22c0,0 0.682,-2.901 -1.282,-4.615Z" style="fill:#525bd3;fill-rule:nonzero;"/><path d="M582.714,174.427c0,0 -0.968,0.075 -1.579,2.477c-0.615,2.403 0,1.964 0,1.964c-0.179,-0.487 -0.052,-1.035 0.322,-1.393c0.643,-0.806 0.333,-2.323 1.257,-3.048Z" style="fill:#525bd3;fill-rule:nonzero;"/></g></svg>