<?xml version="1.0" encoding="UTF-8" standalone="no"?><!DOCTYPE svg PUBLIC "-//W3C//DTD SVG 1.1//EN" "http://www.w3.org/Graphics/SVG/1.1/DTD/svg11.dtd"><svg width="100%" height="100%" viewBox="0 0 240 144" version="1.1" xmlns="http://www.w3.org/2000/svg" xmlns:xlink="http://www.w3.org/1999/xlink" xml:space="preserve" xmlns:serif="http://www.serif.com/" style="fill-rule:evenodd;clip-rule:evenodd;stroke-linejoin:round;stroke-miterlimit:2;"><rect id="Artboard1" x="0" y="0" width="240" height="144" style="fill:none;"/><path d="M98.215,93.677c-14.16,-0.851 -38.022,11.235 -54.921,-14.082c-16.899,-25.316 4.83,-34.586 4.577,-49.784c-0.331,-20.008 31.157,-23.986 43.151,-12.46c11.995,11.527 4.109,24.789 18.93,23.38c11.812,-1.123 8.763,14.882 20.807,16.023c10.453,0.992 9.537,-33.956 29.221,-24.979c17.916,8.168 9.555,-19.141 31.657,-19.479c25.623,-0.391 40.712,63.226 3.042,65.62c-20.648,1.313 -3.391,34.991 -35.759,36.793c-31.836,1.775 -45.313,-20.088 -60.705,-21.032Z" style="fill:#e8e8e8;fill-rule:nonzero;"/><circle cx="38.854" cy="32.173" r="6.443" style="fill:#e8e8e8;"/><circle cx="41.671" cy="20.203" r="3.954" style="fill:#e8e8e8;"/><path d="M31.708,129.827c-3.419,0.172 -30.006,2.309 -22.835,7.365c5.517,3.901 66.874,8.125 80.146,3.714c9.668,-3.207 -0.13,-5.21 7.393,-6.15c8.45,-1.057 14.294,5.214 26.598,5.038c12.305,-0.176 17.269,-5.507 30.101,-5.038c12.833,0.468 -2.894,3.999 3.679,5.576c6.573,1.577 93.106,2.767 65.131,-5.397c-27.975,-8.164 -140.503,-7.625 -190.213,-5.108Z" style="fill:#e8e8e8;fill-rule:nonzero;"/><path d="M83.988,137.526l-63.12,0c0,0 -6.707,-17.092 4.576,-11.892c11.284,5.2 -3.348,-23.468 5.176,-24.676c8.523,-1.208 7.618,16.589 12.801,14.85c5.182,-1.739 -1.979,-25.521 8.005,-25.827c9.985,-0.306 3.352,30.277 8.041,31.446c4.69,1.169 1.409,-20.194 8.851,-18.807c7.443,1.387 2.236,25.478 8.488,24.26c6.253,-1.218 10.847,2.398 7.182,10.646Z" style="fill:#01008c;fill-rule:nonzero;"/><path d="M42.213,110.182l17.251,-4.869c0,0 -5.668,-32.009 -20.617,-35.375c0.014,0 -9.164,12.9 3.366,40.244Z" style="fill:#fdbc47;fill-rule:nonzero;"/><path d="M49.916,102.549l-0.753,0.112l5.213,34.918l0.752,-0.112l-5.212,-34.918Z" style="fill:#6774ff;"/><path d="M54.743,137.526c0,0 -22.289,-7.111 -14.054,-32.213c0,0 21.091,12.072 14.054,32.213Z" style="fill:#505cd4;fill-rule:nonzero;"/><path d="M54.743,137.526c0,0 -9.601,-18.416 1.436,-27.344c0,0 12.312,15.438 -1.436,27.344Z" style="fill:#fb931f;fill-rule:nonzero;"/><path d="M68.92,110.012l-11.681,24.412l0.686,0.328l11.681,-24.412l-0.686,-0.328Z" style="fill:#6774ff;"/><path d="M30.939,108.549l-0.609,0.454l16.919,22.666l0.61,-0.455l-16.92,-22.665Z" style="fill:#6774ff;"/><circle cx="69.353" cy="110.207" r="4.073" style="fill:#729bbf;"/><circle cx="30.908" cy="109.01" r="3.897" style="fill:#729bbf;"/><path d="M54.743,137.526c0,0 -9.154,-17.705 -24.113,-18.905c-14.959,-1.201 -21.958,7.013 -21.958,7.013l46.071,11.892Z" style="fill:#fdbc47;fill-rule:nonzero;"/><path d="M54.743,137.526c0,0 5.115,-13.251 20.989,-15.138c15.875,-1.887 22.483,7.4 22.483,7.4l-43.472,7.738Z" style="fill:#6774ff;fill-rule:nonzero;"/><path d="M170.387,137.185l51.928,0c0,0 5.517,-14.061 -3.763,-9.784c-9.28,4.278 2.753,-19.303 -4.267,-20.307c-7.02,-1.003 -6.27,13.646 -10.534,12.217c-4.263,-1.43 1.63,-20.993 -6.587,-21.247c-8.217,-0.253 -2.753,24.894 -6.611,25.866c-3.859,0.972 -1.176,-16.61 -7.284,-15.47c-6.109,1.141 -1.835,20.962 -6.982,19.959c-5.147,-1.004 -8.907,1.982 -5.9,8.766Z" style="fill:#01008c;fill-rule:nonzero;"/><path d="M204.755,114.688l-14.202,-4.006c0,0 4.661,-26.334 16.958,-29.101c0,0.014 7.552,10.618 -2.756,33.107Z" style="fill:#fdbc47;fill-rule:nonzero;"/><path d="M198.366,108.41l-4.292,28.723l0.752,0.112l4.292,-28.722l-0.752,-0.113Z" style="fill:#8dbec6;"/><path d="M194.446,137.185c0,0 18.336,-5.851 11.562,-26.5c0,0 -17.353,9.932 -11.562,26.5Z" style="fill:#505cd4;fill-rule:nonzero;"/><path d="M194.446,137.185c0,0 7.897,-15.139 -1.183,-22.493c0.008,-0.004 -10.125,12.699 1.183,22.493Z" style="fill:#505cd4;fill-rule:nonzero;"/><path d="M213.973,113.291l-13.918,18.646l0.609,0.455l13.918,-18.646l-0.609,-0.455Z" style="fill:#8dbec6;"/><path d="M194.446,137.185c0,0 7.541,-14.561 19.839,-15.554c12.297,-0.993 18.064,5.77 18.064,5.77l-37.903,9.784Z" style="fill:#6774ff;fill-rule:nonzero;"/><path d="M182.855,114.507l-0.686,0.329l9.615,20.077l0.686,-0.329l-9.615,-20.077Z" style="fill:#8dbec6;"/><path d="M194.446,137.185c0,0 -4.224,-10.914 -17.268,-12.467c-13.044,-1.552 -18.49,6.102 -18.49,6.102l35.758,6.365Z" style="fill:#6774ff;fill-rule:nonzero;"/><path d="M181.722,111.432c1.808,-0.391 3.594,0.759 3.985,2.567c0.391,1.808 -0.759,3.593 -2.567,3.985c-1.808,0.391 -3.593,-0.759 -3.985,-2.567c-0.391,-1.808 0.759,-3.594 2.567,-3.985Z" style="fill:#fdbc47;"/><circle cx="214.056" cy="113.727" r="3.207" style="fill:#fb921b;"/><path d="M164.067,116.889c-3.052,2.848 -5.795,2.239 -5.795,2.239c0.324,0.539 0.538,1.138 0.631,1.76c0.214,1.408 -0.106,3.415 -2.771,5.281c-5.718,3.978 -8.844,0.609 -8.844,0.609c0,0 -0.31,0.278 -0.813,0.704c-1.521,1.313 -4.823,4.063 -6.809,4.978c-2.644,1.222 -4.577,-1.218 -4.577,-1.218c0,0 -0.239,0.264 -0.637,0.683c-1.556,1.63 -5.555,5.633 -7.495,5.633c-3.169,0 -4.675,-1.827 -4.675,-1.827l-46.55,-44.352l34.854,-23.683c0,0 4.017,2.777 8.823,5.738c-4.482,3.493 -11.224,8.932 -11.224,8.932c0,0 1.218,5.964 5.689,4.608c4.472,-1.355 16.568,-6.009 16.568,-6.009c10.305,8.196 27.679,23.299 32.844,27.812l1.492,1.306c0,0 2.338,3.961 -0.711,6.806Z" style="fill:#6774ff;fill-rule:nonzero;"/><path d="M31.62,51.022l68.51,0l17.483,15.656c0,0 -15.526,15.825 -46.542,28.647l-39.451,-44.303Z" style="fill:#fed648;fill-rule:nonzero;"/><path d="M135.096,131.235c0,0 -0.239,0.264 -0.637,0.683l-11.459,-13.297l12.096,12.614Z" style="fill:#505dd2;fill-rule:nonzero;"/><path d="M147.292,126.75c0,0 -0.31,0.278 -0.814,0.704l-11.382,-12.914l12.196,12.21Z" style="fill:#505dd2;fill-rule:nonzero;"/><path d="M158.906,120.874l-11.618,-10.692l10.981,8.946c0.324,0.535 0.541,1.128 0.637,1.746Z" style="fill:#505dd2;fill-rule:nonzero;"/><path d="M147.295,66.576c0,0 -2.781,3.873 -4.27,4.133c-1.489,0.261 -13.977,-2.066 -13.977,-2.066c0,0 -3.848,0.619 -6.048,2.087c-0.592,0.395 -1.933,1.409 -3.581,2.704c-4.481,3.493 -11.227,8.932 -11.227,8.932c0,0 1.222,5.964 5.693,4.605c4.471,-1.359 16.571,-5.985 16.571,-5.985c10.298,8.192 27.672,23.299 32.84,27.812c4.577,-2.742 14.28,-8.699 15.1,-10.561c1.084,-2.44 4.066,-11.115 4.066,-11.115l-35.167,-20.546Z" style="fill:#505dd2;fill-rule:nonzero;"/><path d="M143.025,66.576c0,0 16.163,15.248 44.419,27.14l34.459,-42.694l-62.412,0l-16.466,15.554Z" style="fill:#fed648;fill-rule:nonzero;"/><rect x="31.62" y="46.991" width="68.51" height="4.031" style="fill:#729bbf;"/><rect x="159.491" y="46.991" width="62.413" height="4.031" style="fill:#729bbf;"/><path d="M91.353,106.239l11.013,-8.703c0,0 3.119,-2.44 5.826,0.68c2.708,3.119 0,6.506 0,6.506l-9.414,8.59c0,0 -4.883,2.112 -7.425,-1.13c-2.542,-3.243 0,-5.943 0,-5.943Z" style="fill:#505dd2;fill-rule:nonzero;"/><path d="M98.778,113.312l13.889,-11.703c0,0 2.844,-1.489 4.946,0c2.102,1.49 0,7.996 0,7.996l-10.326,11.811c0,0 -3.566,2.693 -7.477,-0.968c-2.841,-2.662 -1.032,-7.136 -1.032,-7.136Z" style="fill:#505dd2;fill-rule:nonzero;"/><path d="M107.287,121.416l8.633,-8.287c1.599,-0.797 3.545,-0.448 4.767,0.855c2.278,2.257 0,6.865 0,6.865l-6.193,7.418c0,0 -4.256,0.704 -6.302,-0.778c-2.584,-1.855 -0.905,-6.073 -0.905,-6.073Z" style="fill:#505dd2;fill-rule:nonzero;"/><path d="M114.494,128.274l5.492,-5.904c0,0 2.436,-1.38 4.471,1.197c2.035,2.577 0,5.827 0,5.827l-2.756,5.742c0,0 -3.169,2.848 -5.781,2.39c-4.609,-0.813 -1.426,-9.252 -1.426,-9.252Z" style="fill:#505dd2;fill-rule:nonzero;"/><circle cx="73.338" cy="84.017" r="2.394" style="fill:#01008a;"/><circle cx="67.646" cy="77.916" r="2.394" style="fill:#01008a;"/><circle cx="62.361" cy="71.614" r="2.394" style="fill:#01008a;"/><circle cx="184.543" cy="84.017" r="2.394" style="fill:#fb931d;"/><circle cx="190.232" cy="77.916" r="2.394" style="fill:#fb931d;"/><circle cx="195.52" cy="71.614" r="2.394" style="fill:#fb931d;"/><path d="M89.329,17.658c0,0 -0.94,-1.525 -0.838,-2.313c0.102,-0.789 0.415,-2.363 0.415,-2.363c0.009,0 0.017,0 0.026,0c0.442,0 0.806,0.364 0.806,0.806c0,0.011 0,0.021 -0.001,0.032c-0.028,0.838 -0.433,0.813 -0.433,0.813l0.152,-0.686c0,0 1.221,-3.873 1.679,-3.813c0.458,0.06 2.947,1.271 2.971,2.264c0.025,0.993 -0.704,4.626 -1.246,5.26c-0.542,0.633 -1.116,1.271 -1.116,1.271l-2.415,-1.271Z" style="fill:#6774ff;fill-rule:nonzero;"/><path d="M88.593,17.872c0,0 0.507,-1.552 2.412,-0.51c1.904,1.042 1.348,2.137 1.348,2.137c0,0 -0.429,0.799 -2.084,0.127c-2.06,-0.849 -1.676,-1.754 -1.676,-1.754Z" style="fill:#fb911e;fill-rule:nonzero;"/><path d="M94.029,52.413c0,0 0.884,2.44 1.968,2.235c1.084,-0.204 4.133,-1.883 4.608,-1.112c0.476,0.771 -4.538,8.565 -7.861,7.449c-0.884,-0.306 -1.627,-4.576 -1.831,-6.066c-0.105,-0.913 0.192,-1.829 0.813,-2.506l2.303,0Z" style="fill:#1631a4;fill-rule:nonzero;"/><path d="M89.082,63.932c0,0 1.155,3.119 2.113,3.186c0.957,0.067 2.573,-0.352 2.778,0c0.204,0.352 -1.627,3.457 -3.725,3.996c-1.358,0.339 -2.742,0.566 -4.137,0.68l0,-8.2l2.971,0.338Z" style="fill:#1631a4;fill-rule:nonzero;"/><path d="M89.765,54.581c0,0 3.591,1.373 5.352,-1.447c0,0 -5.633,-17.729 -6.436,-18.747c-0.803,-1.017 -12.949,2.849 -12.949,2.849l-0.471,-1.965l-4.317,1.436c0,0 3.908,8.527 4.112,8.527c0.205,0 9.08,-4.928 9.76,-4.928c0.679,0 4.949,14.275 4.949,14.275Z" style="fill:#1631a4;fill-rule:nonzero;"/><path d="M63.4,40.893c0,0 0.352,5.827 4.608,6.098c4.257,0.271 10.844,1.222 11.52,2.035c0.676,0.813 5.559,16.547 5.559,16.547c0,0 3.168,1.859 5.15,-1.694c0,0 -5.221,-17.881 -5.964,-19.035c-0.742,-1.155 -9.963,-4.208 -9.963,-4.208c0,0 0.831,-0.271 0.042,-3.626l-5.71,1.204l-5.242,2.679Z" style="fill:#01008a;fill-rule:nonzero;"/><path d="M62.657,38.214c0,0 0.137,2.204 0.746,2.679c0.609,0.476 12.322,-4.474 12.322,-4.474l-0.066,-0.574l-9.418,-0.306l-3.584,2.675Z" style="fill:#fb921e;fill-rule:nonzero;"/><path d="M88.822,18.439c-0.337,-0.021 -0.671,0.081 -0.94,0.285c-0.384,0.331 -5.82,6.073 -5.82,6.073c-0.552,0.319 -1.255,0.224 -1.704,-0.228c-0.76,-0.786 -5.745,-6.658 -6.238,-6.732c-0.493,-0.074 -2.225,2.591 -2.225,2.591l1.553,8.45c0,0 1.802,-0.43 2.284,0c0.483,0.429 5.264,3.735 6.584,3.281c1.32,-0.454 8.583,-9.481 8.977,-10.752c0.395,-1.271 0,-1.538 0,-1.538l-2.471,-1.43Z" style="fill:#fff;fill-rule:nonzero;"/><path d="M76.479,32.624c-0.086,1.112 -0.361,2.201 -0.813,3.221l-10.414,1.898l-2.595,0.471c0,0 -1.627,-0.031 -1.831,-3.013c-0.155,-2.254 0,-10.309 0.476,-14.385c0.147,-1.317 0.331,-2.218 0.538,-2.377c0,0 1.458,-1.366 2.88,-1.366l7.15,0c0,0 2.44,-0.137 2.746,2.113c0.307,2.249 2.102,11.304 1.863,13.438Z" style="fill:#fed648;fill-rule:nonzero;"/><path d="M68.614,34.222c-0.352,0.099 -4.753,1.348 -3.362,3.521l-2.595,0.471c0,0 -1.627,-0.031 -1.831,-3.013c-0.155,-2.254 0,-10.309 0.476,-14.385l1.76,-2.377c0,0 3.091,1.496 2.464,6.584c-0.626,5.087 -2.193,8.569 -1.323,9.195c0.869,0.627 4.112,0.057 4.411,0.004Z" style="fill:#fdbc45;fill-rule:nonzero;"/><path d="M59.707,46.449c0,0 1.866,1.408 1.76,1.795c-0.106,0.388 -1.056,0.169 -1.056,0.169c0,0 0.373,1.289 0.704,1.356c0.331,0.067 1.253,0 1.289,0.352c0.035,0.352 -2.201,3.422 -3.422,2.978c-1.222,-0.443 -2.574,-1.524 -2.947,-2.844c-0.373,-1.321 0.542,-3.32 0.542,-3.32l3.13,-0.486Z" style="fill:#6774ff;fill-rule:nonzero;"/><path d="M58.858,44.829c0,0 1.359,-1.295 1.426,-2.242c0.067,-0.947 0.542,-8.266 0.915,-9.506c0.374,-1.239 3.014,-10.438 3.014,-11.97c0,-1.531 -1,-4.46 -3.929,-1.693c-3.084,2.915 -4.344,8.386 -4.929,11.861c-0.559,3.32 -1.179,13.832 0.388,14.557c1.566,0.726 3.115,-1.007 3.115,-1.007Z" style="fill:#fff;fill-rule:nonzero;"/><path d="M55.968,48.178l3.749,-1.729c0,0 0.419,-1.387 -0.517,-1.591c-0.937,-0.205 -3.623,0.704 -3.785,1.355c-0.129,0.705 0.075,1.431 0.553,1.965Z" style="fill:#fb921e;fill-rule:nonzero;"/><path d="M89.688,13.486l0,1.711c0,0.081 1.76,0.651 1.605,0.968c-0.155,0.317 0.564,-0.62 0.754,-0.5c0.19,0.12 0,-0.806 0,-0.806l-2.359,-1.373Z" style="fill:#505cd1;fill-rule:nonzero;"/><path d="M169.757,68.305c0,0 -1.057,3.555 -2.032,3.809c-0.975,0.253 -2.644,0.729 -2.644,2.084l0,1.056l9.453,-1.369c0,0 -1.056,-5.591 -1.725,-6.101c-0.669,-0.511 -3.052,0.521 -3.052,0.521Z" style="fill:#01008a;fill-rule:nonzero;"/><path d="M180.987,38.996l-12.653,4.51c0,0 -1.626,0.704 -1.573,2.013c0.052,1.31 1.76,23.328 1.76,23.328c0,0 3.626,0.88 5.351,-0.278c-0.049,-0.409 0.408,-19.466 0.764,-20.068c0.356,-0.602 9.301,-2.95 9.301,-2.95l1.88,-5.591l-0.507,-1.675c0,0 -3.407,0.401 -4.323,0.711Z" style="fill:#01008a;fill-rule:nonzero;"/><path d="M177.889,39.943c0,0 4.014,0.662 4.116,0.612c0.102,-0.049 -0.455,-3.168 -0.455,-3.168l-3.661,2.556Z" style="fill:#fb931d;fill-rule:nonzero;"/><path d="M182.311,68.456c0,0 0.306,4.32 -0.56,4.777c-0.866,0.458 -1.524,0.705 -1.369,2.032c0,0 7.213,-0.152 7.213,-0.303c0,-0.151 -0.2,-1.222 -0.556,-1.577c-0.356,-0.356 -1.577,-4.929 -1.577,-4.929l-3.151,0Z" style="fill:#01008a;fill-rule:nonzero;"/><path d="M183.374,39.204c0,0 -0.704,2.974 0.31,3.077l-3.728,2.348c0,0 -0.845,0.352 -0.592,3.204c0.254,2.851 2.137,21.348 2.137,21.348c0,0 3.873,1.729 5.739,0c0,0 -0.303,-21.553 0.457,-22.112c0.761,-0.56 4.676,0.559 5.746,-1.88c1.07,-2.44 -0.306,-7.267 -0.306,-7.267l-6.556,0.352l-3.207,0.93Z" style="fill:#1631a4;fill-rule:nonzero;"/><path d="M185.691,20.502c1.826,-0.142 3.662,-0.142 5.488,0l0.307,18.35c0,0 -8.971,0.704 -9.098,0.151c-0.126,-0.553 3.303,-18.501 3.303,-18.501Z" style="fill:#fff;fill-rule:nonzero;"/><path d="M190.324,21.189c-2.113,2.168 -3.947,0.56 -3.947,0.56l0,-1.236l0,-1c0,-0.644 -0.813,-0.729 -0.862,-0.729l4.006,-2.056l0.482,-0.246c0,0 0.374,4.369 0.321,4.707Z" style="fill:#6774ff;fill-rule:nonzero;"/><path d="M189.563,17.291c0,0 -2.246,1.792 -3.168,3.222l0,-1c0,-0.644 -0.813,-0.729 -0.863,-0.729l4.007,-2.056l0.024,0.563Z" style="fill:#505cd1;fill-rule:nonzero;"/><path d="M184.649,11.789c0,0 -0.405,2.235 -0.507,3.404c-0.102,1.169 -0.067,3.521 0.405,3.743c0.471,0.221 1.137,0.239 1.982,-0.103c0.845,-0.341 4.693,-2.436 4.693,-2.436l1.056,-2.017l-0.659,-2.084l-4.728,-1.56c0,0 -1.785,-0.355 -2.242,1.053Z" style="fill:#6774ff;fill-rule:nonzero;"/><path d="M190.102,14.901c0,0 -0.123,-1.271 -1.201,-1.546c-1.077,-0.274 -3.334,-0.32 -3.612,-1.207l-0.704,0.275l0,-1.479l2.26,-1.141l3.13,1.922c0,0 0.299,2.799 0.127,3.176Z" style="fill:#505cd1;fill-rule:nonzero;"/><path d="M184.955,15.408c0,0 0.289,-0.408 0.56,-0.155c0.271,0.254 1.116,0.915 1.538,0.627c0,0 -0.88,1.056 -2.112,-0.067c0,0 -0.475,0.524 -1.018,0.236c-0.194,-0.105 -0.349,-0.271 -0.44,-0.472c-0.091,-0.201 0.595,0.018 0.831,-0.271c0.349,-0.426 0.641,0.102 0.641,0.102Z" style="fill:#1530a3;fill-rule:nonzero;"/><path d="M190.102,14.901c0,0 0.838,-2.021 1.373,-0.859c0.415,0.908 -0.306,2.084 -1.306,1.778l-0.106,1.211l0.159,1.989c0,0 0.151,-0.76 0.352,-0.743c0.2,0.018 0.186,0.44 0.186,0.44c0,0 0.268,-0.609 0.49,-0.679c0.221,-0.071 3.475,-1.76 3.115,-5.182c-0.31,-3.047 -2.833,-5.431 -5.893,-5.566c-2.644,-0.078 -3.186,1.295 -3.186,1.295c0,0 -1.289,-1.447 -2.253,0.511c-0.965,1.957 1.468,3.605 1.468,3.605l0.785,-1.574c0,0 0.524,1.718 2.915,1.574c2.13,-0.109 1.901,2.2 1.901,2.2Z" style="fill:#1631a4;fill-rule:nonzero;"/><path d="M166.377,14.813c0,0 0.662,-2.517 0.482,-3.521c-0.072,-0.548 -0.291,-1.066 -0.634,-1.499c-0.343,-0.434 -0.584,-0.352 -0.535,0.94c0.05,1.292 -0.2,1.728 -0.2,1.728c0,0 0.507,-0.127 0.38,-0.278c-0.127,-0.151 -1.958,-4.168 -2.845,-4.728c-0.887,-0.56 -2.95,1.426 -2.77,2.95c0.179,1.525 3.15,6.277 3.429,6.277c0.278,0 2.39,-1.211 2.693,-1.869Z" style="fill:#6774ff;fill-rule:nonzero;"/><path d="M162.821,16.795c0,0 1.447,-2.366 3.873,-2.211l5.795,8.893c0,0 0.609,0.989 1.675,0.662c1.067,-0.327 8.643,-3.228 8.643,-3.228c0,0 -0.105,5.717 -0.306,5.766c-0.201,0.05 -10.012,4.398 -10.826,4.067c-0.813,-0.331 -8.854,-13.949 -8.854,-13.949Z" style="fill:#fdbc45;fill-rule:nonzero;"/><path d="M182.135,22.512c0,0 0.025,-1.806 1.447,-1.908c1.422,-0.102 2.542,-0.133 2.542,-0.133l-2.627,18.356c0,0 -3.872,0 -5.608,1.116l4.246,-17.431Z" style="fill:#fed648;fill-rule:nonzero;"/><path d="M190.324,21.189c0,0 -1.454,14.413 -4.2,16.212c0,0 2.256,1.077 3.439,1.141c1.183,0.063 2.542,-7.781 2.542,-7.781l-1.781,-9.572Z" style="fill:#efefef;fill-rule:nonzero;"/><path d="M196.288,40.168c-0.697,0.263 -1.427,0.428 -2.169,0.493c-2.936,0.303 -6.2,-0.493 -6.2,-0.493c0,0 2.222,-6.122 2.412,-10.357c0.19,-4.236 0,-9.358 0,-9.358c1.389,0.09 2.766,0.314 4.112,0.669c0.073,0.016 0.144,0.041 0.211,0.074c0.402,0.179 0.678,0.559 0.725,0.996l0.074,1.44l0.835,16.536Z" style="fill:#fed648;fill-rule:nonzero;"/><path d="M202.16,44.96c0,0 -0.891,1.549 -1.144,1.7c-0.254,0.152 -0.204,0.662 1.369,0c1.574,-0.662 6.608,-0.151 7.471,-0.204c0.862,-0.053 0.662,-0.672 0.662,-0.672c0,0 -3.2,-0.497 -4.014,-1.208c-0.813,-0.711 -2.848,-2.436 -2.848,-2.436l-1.982,2.031l0.486,0.789Z" style="fill:#6774ff;fill-rule:nonzero;"/><path d="M196.288,40.168c-0.697,0.263 -1.427,0.428 -2.169,0.493l-0.194,-0.106c0.895,-0.58 0.75,-2.33 0,-3.168c-0.75,-0.838 0.053,-2.112 0.733,-3.742c0.679,-1.63 -1.187,-5.133 -1.567,-8.302c-0.373,-3.102 1.479,-4.116 1.563,-4.161l0.799,2.436l0.835,16.55Z" style="fill:#fdbc45;fill-rule:nonzero;"/><path d="M200.9,44.565c0,0 2.911,-0.334 3.724,-2.112c0,0 -3.203,-9.266 -4.017,-10.84c-0.813,-1.574 -4.724,-9.287 -4.724,-9.287c0,0 -0.581,-0.951 -1.225,-1.127c-0.645,-0.176 -1.268,3.553 -0.557,5.584c0.712,2.031 2.746,6.253 3.102,6.964c0.356,0.711 3.697,10.818 3.697,10.818Z" style="fill:#fed648;fill-rule:nonzero;"/><path d="M191.274,14.369c0,0 -0.105,-0.408 -0.549,0.208c-0.443,0.616 -0.127,0.722 -0.127,0.722c0,0 -0.063,-0.162 0.127,-0.398c0.169,-0.192 0.352,-0.369 0.549,-0.532Z" style="fill:#505cd1;fill-rule:nonzero;"/><path d="M71.781,13.488c-0.047,-0.028 -0.848,-0.108 -1.278,0.604c-0.43,0.712 -0.337,1.573 -0.337,1.573c0,0 -1.135,-0.187 -1.695,-0.448c-1.162,-0.532 -2.366,0.315 -2.32,0.26c0.068,-0.082 0.884,-4.625 0.884,-4.625l2.66,0.954l2.086,1.682Z" style="fill:#6774ff;fill-rule:nonzero;"/><path d="M66.061,3.045c-0.09,-0.083 -1.711,-1.66 -1.633,-1.313c0.079,0.348 -0.112,0.527 -0.206,0.49c-0.093,-0.038 -2.923,-3.424 -8.196,2.429c-5.273,5.853 -5.231,8.607 -5.231,8.607c0,0 0.721,-1.57 3.201,-1.014c2.48,0.557 6.951,-4.187 8.04,-6.598c1.09,-2.41 3.261,-0.485 3.261,-0.485c0,0 1.179,-1.734 0.764,-2.116Z" style="fill:#1530a3;fill-rule:nonzero;"/><path d="M74.812,7.766c0,0 0.247,3.19 -0.692,4.606c-0.94,1.415 -1.037,1.647 -1.343,1.587c-0.306,-0.057 -4.87,-2.52 -4.87,-2.52l-1.756,-4.006c0,0 4.043,-3.027 4.138,-2.971c0.094,0.055 4.493,2.396 4.523,3.304Z" style="fill:#6774ff;fill-rule:nonzero;"/><path d="M69.323,9.305c0,0 -0.181,-1.204 -0.938,-1.271c-0.757,-0.065 -1.179,2.33 0.204,2.72l-1.791,1.163c0,0 -0.166,-1.029 -0.614,-1.133c-0.45,-0.101 -3.989,-1.463 -1.871,-5.697c2.186,-4.373 5.407,-3.976 7.56,-2.836c2.151,1.141 3.314,1.812 3.447,5.376l-3.767,0.754l-0.363,-1.89l0.121,1.964l-0.626,-1.83l0.056,1.93l-1.044,0.175c0.001,0.003 -0.306,0.038 -0.374,0.575Z" style="fill:#1530a3;fill-rule:nonzero;"/><path d="M74.807,8.156l0.59,-0.059l-0.133,2.967l-0.277,0.028l-0.493,-2.904l0.313,-0.032Z" style="fill:#8fbcc7;fill-rule:nonzero;"/><path d="M74.927,8.144l-5.816,0.489l0.139,0.364l5.716,-0.468l-0.039,-0.385Z" style="fill:#8ebcc7;fill-rule:nonzero;"/><path d="M68.726,14.317c0,0 3.363,-0.022 3.349,0.996c-0.018,1.324 -0.205,1.76 -0.205,1.76l-7.146,0c0,0 -1.285,-3.299 4.002,-2.756Z" style="fill:#fb921e;fill-rule:nonzero;"/></svg>