<?xml version="1.0" encoding="UTF-8" standalone="no"?><!DOCTYPE svg PUBLIC "-//W3C//DTD SVG 1.1//EN" "http://www.w3.org/Graphics/SVG/1.1/DTD/svg11.dtd"><svg width="100%" height="100%" viewBox="0 0 4167 4167" version="1.1" xmlns="http://www.w3.org/2000/svg" xmlns:xlink="http://www.w3.org/1999/xlink" xml:space="preserve" xmlns:serif="http://www.serif.com/" style="fill-rule:evenodd;clip-rule:evenodd;stroke-linejoin:round;stroke-miterlimit:2;"><path d="M2486.89,1917.87c0,0 -79.729,307.726 -341.457,208.253c-261.729,-99.473 -376.212,-125.35 -462.235,28.406c-86.024,153.755 -562.192,239.832 -667.099,26.899c-162.363,-329.353 57.134,-775.018 536.638,-731.657c479.504,43.361 371.208,-341.242 670.811,-319.669c299.602,21.573 321.982,664.839 263.342,787.768Z" style="fill:#e8e8e8;fill-rule:nonzero;"/><path d="M767.987,2308.66c0,0 116.743,290.134 441.523,276.2c324.78,-13.934 258.232,441.146 90.058,445.719c-168.173,4.573 -355.068,312.03 -560.901,343.771c-205.832,31.741 -352.54,-207.07 -227.674,-449.431c124.866,-242.361 -400.205,-548.42 -110.179,-804.123c167.958,-147.945 367.173,187.864 367.173,187.864Z" style="fill:#e8e8e8;fill-rule:nonzero;"/><path d="M2879.08,2258.52c22.81,63.589 -6.51,210.19 -161.933,438.294c-155.423,228.105 91.08,352.056 427.696,135.895c336.616,-216.162 788.306,-10.061 694.697,-347.214c-93.609,-337.154 -414.946,-64.558 -493.868,-344.309c-78.922,-279.751 339.629,-192.813 212.934,-426.19c-126.695,-233.377 -1016.14,0 -966.325,293.523c41.425,244.459 253.713,157.952 286.799,250.001Z" style="fill:#e8e8e8;fill-rule:nonzero;"/><path d="M1762.23,3804.47c0,0 -965.141,84.033 -1088.07,144.179c-122.929,60.147 1284.97,214.225 1109.11,118.679c-219.982,-119.324 1815.69,28.89 1742.26,-33.516c-135.787,-115.397 228.696,-40.779 320.745,-87.906c146.87,-75.264 -1634.28,-122.176 -2084.04,-141.436l-0.005,0Z" style="fill:#f2f2f2;fill-rule:nonzero;"/><path d="M2043.54,2511.86l-231.817,590.49l-216.484,31.472l-208.576,-55.251l-199.162,282.764l0,497.472l1401.71,0l0,-1346.95l-545.676,0l0.005,0.003Z" style="fill:#dfe2e9;fill-rule:nonzero;"/><path d="M1637.1,3685.14l-16.409,-1.667c0,-1.56 14.741,-161.072 -81.397,-238.058l10.33,-12.857c43.038,34.323 71.605,88.982 83.064,158.005c5.279,31.233 6.761,62.989 4.412,94.577Z" style="fill:#00008c;fill-rule:nonzero;"/><path d="M1806.45,3672.39c-7.527,-31.578 -12.51,-63.709 -14.903,-96.083c-5.379,-72.413 3.497,-130.138 26.469,-171.563l14.472,8.016c-51.27,92.425 -10.437,253.874 -10.007,255.488l-16.031,4.142Z" style="fill:#00008c;fill-rule:nonzero;"/><path d="M2048.11,3569.26l-15.655,-5.38c28.406,-83.118 81.343,-251.076 78.546,-291.694l16.462,-1.13c3.82,54.121 -75.963,288.251 -79.353,298.204Z" style="fill:#00008c;fill-rule:nonzero;"/><path d="M1791.5,3722.43l-16.463,-1.399c0,-1.668 13.342,-169.142 -65.042,-235.314l10.76,-12.642c35.937,30.288 58.748,81.665 67.84,152.572c4.07,32.093 5.043,64.503 2.905,96.783Z" style="fill:#ffbc48;fill-rule:nonzero;"/><path d="M1835.4,3663.68l-16.139,-4.143c2.044,-7.962 51.108,-195.502 119.916,-227.997l7.048,14.903c-25.07,11.889 -52.185,52.883 -78.331,118.356c-12.632,32.341 -23.48,65.351 -32.494,98.881Z" style="fill:#ffbc48;fill-rule:nonzero;"/><path d="M2073.29,3899.8c-39.523,9.205 -79.709,15.285 -120.185,18.183c-7.962,0.7 -16.14,1.345 -24.748,1.883c-62.312,3.865 -124.83,2.947 -187.002,-2.743l-22.703,-2.26c-63.717,-7.008 -126.808,-18.86 -188.725,-35.453c-61.916,-16.593 -60.576,-334.087 34.862,-345.116c95.438,-11.029 67.893,262.536 157.898,251.507c90.004,-11.029 -7.371,-165.214 84.463,-175.329c91.834,-10.114 50.409,159.297 81.235,159.082c30.827,-0.215 82.15,-315.85 199.861,-303.046c117.711,12.804 -14.956,433.292 -14.956,433.292Z" style="fill:#6774ff;fill-rule:nonzero;"/><path d="M1699.88,3849.66c-39.219,0 -73.757,-25.877 -100.71,-75.856c-12.693,-24.145 -22.619,-49.645 -29.589,-76.017c-0.279,-0.967 -0.42,-1.969 -0.42,-2.975c0,-5.171 3.727,-9.646 8.812,-10.582c5.674,-1.312 11.436,2.208 12.858,7.854c9.415,35.185 46.482,150.044 124.005,133.904c76.071,-15.87 86.938,-93.609 88.337,-121.369c0.23,-5.738 5.016,-10.333 10.76,-10.329c0.244,-0.017 0.49,-0.025 0.735,-0.025c5.903,0 10.76,4.857 10.76,10.76c0,0.295 -0.012,0.591 -0.036,0.886c-1.883,32.924 -15.333,122.821 -105.822,141.65c-6.471,1.389 -13.071,2.093 -19.69,2.099Z" style="fill:#00008c;fill-rule:nonzero;"/><path d="M1741.36,3917.28l-22.703,-2.259l-10.76,-65.688c-0.11,-0.621 -0.166,-1.25 -0.166,-1.881c0,-5.338 3.973,-9.909 9.258,-10.654c0.638,-0.117 1.285,-0.175 1.933,-0.175c5.342,0 9.915,3.977 10.656,9.267l11.782,71.39Z" style="fill:#00008c;fill-rule:nonzero;"/><path d="M2060.65,3604.98c-12.857,43.738 -61.868,207.231 -107.596,313.16c-7.962,0.699 -16.14,1.345 -24.747,1.883c40.564,-91.457 88.767,-244.621 111.147,-321.23c1.275,-4.663 5.544,-7.921 10.378,-7.921c1.097,0 2.187,0.168 3.233,0.497c4.735,1.223 8.07,5.527 8.07,10.418c0,1.083 -0.163,2.159 -0.485,3.193Z" style="fill:#00008c;fill-rule:nonzero;"/><path d="M2040.31,3349.01l121.153,18.399c0,0 58.748,-196.31 -16.516,-267.969c0,0 -110.178,48.418 -104.637,249.57Z" style="fill:#ffbc48;fill-rule:nonzero;"/><path d="M1766.75,3408.78l99.151,70.583c0,0 121.153,-130.784 91.78,-207.661c0,0 -102.809,-31.58 -190.931,137.078Z" style="fill:#ff931e;fill-rule:nonzero;"/><path d="M1529.93,3510.14l94.094,-119.809c0,0 -103.293,-112.977 -237.305,-78.008c0,0 -27.544,114.752 143.211,197.817Z" style="fill:#ffbc48;fill-rule:nonzero;"/><circle cx="1715.37" cy="3479.36" r="51.431" style="fill:#1431a5;"/><circle cx="1942.99" cy="3439.02" r="61.491" style="fill:#1431a5;"/><path d="M1539.99,2981.41c0,0 -7.532,55.09 -32.279,70.906c-24.747,15.817 -50.248,24.102 -47.504,41.317c0,0 63.32,13.073 98.451,0c35.13,-13.073 66.925,-4.142 70.153,-10.329c3.228,-6.187 -40.618,-114.967 -40.618,-114.967l-48.203,13.073Z" style="fill:#1431a5;fill-rule:nonzero;"/><path d="M1624.02,2968.34c-10.963,9.591 -23.782,16.825 -37.659,21.25l-0.377,0c-5.62,1.938 -11.35,3.536 -17.161,4.789c-17.179,3.832 -34.747,5.638 -52.346,5.379c-17.599,-0.258 -112.977,-302.238 -119.755,-326.286c-6.779,-24.048 25.393,-266.248 25.393,-266.248l-9.415,-46.535l63.859,-53.476c0,0 60.953,157.683 75.317,199.054c1.285,3.157 2.31,6.414 3.067,9.737c-1.292,2.045 -48.419,123.736 -45.514,134.926c2.905,11.19 114.591,317.41 114.591,317.41Z" style="fill:#1431a5;fill-rule:nonzero;"/><path d="M1624.02,2968.34c-10.963,9.591 -23.782,16.825 -37.659,21.25l-0.377,0c-5.62,1.938 -11.35,3.536 -17.161,4.789c11.889,-6.133 28.405,-16.57 25.231,-26.2c-5.38,-16.14 -75.318,-236.175 -89.951,-274.694c-14.633,-38.52 -22.972,-62.406 -8.661,-114.644c14.31,-52.239 -14.311,-164.462 -14.311,-164.462l70.907,91.726c1.284,3.158 2.31,6.414 3.066,9.738c-1.291,2.044 -48.418,123.736 -45.513,134.926c2.905,11.19 114.429,317.571 114.429,317.571Z" style="fill:#002a93;fill-rule:nonzero;"/><path d="M1304.08,2430.62c-18.891,4.543 -38.043,7.921 -57.349,10.114c-22.972,1.83 -39.003,10.76 -28.459,14.203c10.544,3.443 42.662,0.484 38.089,10.76c-4.573,10.275 -51.861,42.716 -52.776,51.431c-0.915,8.715 0.915,22.972 4.143,25.716c3.227,2.743 34.861,18.829 50.462,14.202c15.602,-4.626 76.878,-82.795 76.878,-82.795c0,0 -24.102,-42.232 -30.988,-43.631Z" style="fill:#4f5cd3;fill-rule:nonzero;"/><path d="M1741.2,2987.97c0,0 17.27,19.959 14.042,39.756c-3.228,19.798 0.376,49.979 -6.833,59.663c-7.209,9.683 -19.098,7.747 -16.892,17.377c2.205,9.63 71.175,3.335 73.327,0c2.152,-3.336 33.462,-111.632 30.18,-116.796c-3.281,-5.165 -59.178,-46.159 -59.178,-46.159l-34.646,46.159Z" style="fill:#1431a5;fill-rule:nonzero;"/><path d="M1730.92,3007.55c0,0 44.975,0.915 83.549,-51.377c0,0 -128.525,-331.398 -133.097,-349.689c-4.573,-18.291 -21.089,-157.898 -21.089,-168.012c0,-10.114 -50.517,-166.129 -50.517,-166.129l-166.452,56.918c0,0 11.298,79.837 28.298,82.581c17,2.743 9.63,2.797 9.63,2.797c0,0 60.738,180.816 73.973,215.678c13.234,34.861 175.705,377.233 175.705,377.233Z" style="fill:#01008a;fill-rule:nonzero;"/><path d="M1303.65,2420.51c0,0 -7.371,-22.918 -2.313,-33.462c5.057,-10.545 74.349,-171.671 74.349,-171.671l64.558,62.891c0,0 -74.834,184.958 -85.809,187.218l-11.028,2.313l-39.757,-47.289Z" style="fill:#ffbb46;fill-rule:nonzero;"/><path d="M1291.17,2433.53c0,0 28.459,26.9 34.7,51.97c0,0 18.614,-8.07 17.699,-17.7c0,0 -18.829,-44.975 -39.918,-47.289l-12.481,13.019Z" style="fill:#ff931e;fill-rule:nonzero;"/><path d="M1646.73,2233.13c0,0 -47.719,78.007 -49.548,75.317c-1.829,-2.689 -58.747,-11.566 -126.802,17.431l-1.076,0.538c-17.488,7.556 -34.132,16.933 -49.656,27.975c-15.524,11.042 -10.76,17.431 -27.168,-17.43c-16.409,-34.862 -90.919,-294.923 -93.663,-312.031c-2.744,-17.107 116.635,-90.004 138.638,-99.365c22.004,-9.361 50.463,-21.143 62.406,7.263c1.668,3.927 5.38,12.427 11.244,24.209c35.238,73.973 135.625,276.093 135.625,276.093Z" style="fill:#fff;fill-rule:nonzero;"/><path d="M1418.51,1918.08c0,0 -49.44,88.713 -50.516,90.812l-16.785,-12.643l0,-6.133c-0.031,-9.751 -1.095,-19.471 -3.175,-28.997c-3.712,-15.871 -12.319,-16.893 -12.319,-16.893l24.263,-40.618l17.215,-28.943l41.317,43.415Z" style="fill:#6774ff;fill-rule:nonzero;"/><path d="M1377.84,1987.86l-9.792,21.036l17.754,0l-7.962,-21.036Z" style="fill:#e5e5e5;fill-rule:nonzero;"/><path d="M1413.03,1912.33l-38.735,83.064c0,0 49.118,57.941 48.418,55.681c-0.699,-2.259 9.2,-121.207 9.2,-121.207l-18.883,-17.538Z" style="fill:#ffd648;fill-rule:nonzero;"/><path d="M1368.05,2008.9l-20.12,-47.827l0,42.232l20.12,5.595Z" style="fill:#ffd648;fill-rule:nonzero;"/><path d="M1347.93,2003.3l0,38.573l13.665,-34.754l-13.665,-3.819Z" style="fill:#e5e5e5;fill-rule:nonzero;"/><path d="M1570.6,2360.9c-5.885,6.049 -12.157,11.71 -18.776,16.946c-6.724,4.734 -14.31,-5.702 -25.877,3.927c-11.566,9.63 -6.509,27.438 -6.509,27.438c0,0 -26.415,31.364 -23.671,40.241c2.743,8.876 5.81,20.013 12.857,26.899c7.048,6.886 49.172,21.519 55.197,18.13c6.026,-3.389 42.555,-44.007 44.492,-49.871c1.936,-5.864 6.509,-54.874 6.509,-54.874l-44.222,-28.836Z" style="fill:#6774ff;fill-rule:nonzero;"/><path d="M1646.73,2233.13c0,0 -47.719,78.007 -49.548,75.317c-1.829,-2.689 -58.747,-11.566 -126.802,17.431c25.554,-12.643 91.457,-137.293 84.84,-155.369c-6.618,-18.077 -67.517,-83.657 -95.062,-119.325c-27.545,-35.668 -16.139,-79.998 -16.139,-79.998c0,0 30.18,-6.456 67.086,-13.934c35.238,73.758 135.625,275.878 135.625,275.878Z" style="fill:#cbcbcb;fill-rule:nonzero;"/><path d="M1572.54,2346.16c0,0 -6.349,-11.889 -2.26,-17.431c4.089,-5.541 28.459,-151.011 25.716,-158.328c-2.744,-7.317 -127.61,-128.524 -135.841,-136.809c-8.231,-8.285 -43.039,-77.362 21.035,-114.967c26.899,-15.655 202.927,218.475 202.013,235.906c0,0 -33.678,223.747 -56.058,233.215l-54.605,-41.586Z" style="fill:#ffd648;fill-rule:nonzero;"/><path d="M1561.03,2370.37l11.674,-24.855c23.051,6.377 42.706,21.548 54.713,42.232l-14.041,19.69c0,0 -26.254,-37.013 -52.346,-37.067Z" style="fill:#ff931e;fill-rule:nonzero;"/><path d="M1352.29,1958.33c6.671,19.152 15.172,48.419 15.656,50.463l-16.731,-18.668c-0.031,-9.751 -1.095,-19.471 -3.175,-28.997c-3.712,-15.871 -12.319,-16.893 -12.319,-16.893l24.263,-40.618l10.759,-0.699c0,0 -25.339,35.722 -18.453,55.412Z" style="fill:#4f5cd3;fill-rule:nonzero;"/><path d="M1404.04,1840.62l-21.519,45.083c0,0 -36.852,55.466 -46.804,58.532c-9.953,3.067 -31.741,2.044 -51.647,-21.519c-12.051,-14.364 -20.766,-48.903 -25.715,-73.973c-3.282,-16.139 -4.896,-28.567 -4.896,-28.567c-1.399,-8.07 8.124,-13.665 22.488,-17.484c35.507,-9.469 100.441,-8.124 102.216,-6.671c2.798,1.937 25.877,44.599 25.877,44.599Z" style="fill:#6774ff;fill-rule:nonzero;"/><path d="M1364.82,1816.19l-2.851,19.798c-3.31,-5.368 -9.745,-8.007 -15.87,-6.51c-9.523,2.529 -54.659,25.393 -88.014,19.314c-3.282,-16.14 -4.896,-28.567 -4.896,-28.567c-1.399,-8.07 8.124,-13.665 22.488,-17.484l89.143,13.449Z" style="fill:#4f5cd3;fill-rule:nonzero;"/><path d="M1361.97,1835.99c0,0 3.12,-13.073 15.01,-9.953c11.889,3.121 6.187,42.339 -7.532,45.783c0,0 12.481,32.279 34.539,31.364c0,0 33.032,-59.178 27.168,-70.637c-3.568,-6.935 -7.821,-13.496 -12.697,-19.583c-4.875,-6.087 9.092,-55.197 -41.478,-82.042c-50.57,-26.845 -86.938,44.491 -200.56,28.674c0,0 40.618,90.166 106.036,75.049c65.419,-15.117 74.403,-9.845 79.514,1.345Z" style="fill:#01008a;fill-rule:nonzero;"/><path d="M1377.04,1837.17c-7.002,1.201 -11.823,7.879 -10.76,14.903c1.063,7.023 4.788,-12.697 10.76,-14.903Z" style="fill:#4f5cd3;fill-rule:nonzero;"/><path d="M1469.25,2326.25l1.13,-0.485l-1.076,0.538l-0.054,-0.053Z" style="fill:#ffd648;fill-rule:nonzero;"/><path d="M1111.81,3769.66c0,0 4.788,71.605 42.662,92.963c37.874,21.358 50.248,22.057 51.647,38.573c0,0 -178.342,8.232 -188.671,-4.142c-10.329,-12.374 37.659,-127.394 37.659,-127.394l56.703,0Z" style="fill:#1431a5;fill-rule:nonzero;"/><path d="M1127.57,3787.57c-15.957,11.422 -35.202,17.353 -54.82,16.893c-18.296,-0.265 -36.36,-4.141 -53.153,-11.405c-16.794,-7.264 -0.968,-390.791 3.658,-410.965c4.627,-20.175 -86.077,-241.447 -86.077,-241.447l83.871,-83.979l43.577,-43.63c0,0 3.766,14.902 9.63,38.573c1.237,4.734 2.421,9.791 3.82,15.225c23.025,92.64 67.732,274.909 69.937,301.27c2.314,35.991 -20.443,419.465 -20.443,419.465Z" style="fill:#1431a5;fill-rule:nonzero;"/><path d="M1072.7,3804.47c-18.295,-0.265 -36.359,-4.141 -53.153,-11.405c-16.793,-7.264 -0.968,-390.791 3.658,-410.965c4.627,-20.175 -86.077,-241.447 -86.077,-241.447l83.872,-83.979l53.206,-5.057c1.238,4.734 2.421,9.791 3.82,15.225c-16.14,34.054 -39.112,111.039 -78.922,122.068c0,0 46.159,159.189 43.523,181.193c-2.637,22.003 0,399.613 0,399.613c0,0 6.24,32.064 30.073,34.754Z" style="fill:#002a93;fill-rule:nonzero;"/><path d="M738.667,3096.16c0,0 14.203,95.438 26.577,92.694c12.373,-2.743 78.061,-47.288 76.232,-53.798c-1.829,-6.51 -0.807,-18.345 -2.475,-25.231c-1.668,-6.887 -22.81,-22.972 -26.899,-28.46c-4.959,-8.296 -9.414,-16.884 -13.342,-25.715l-60.093,40.51Z" style="fill:#6774ff;fill-rule:nonzero;"/><path d="M735.439,3103.05l70.691,-41.801l-19.313,-40.403c0,0 -52.292,28.029 -56.004,37.229c-3.712,9.199 4.626,44.975 4.626,44.975Z" style="fill:#ff931e;fill-rule:nonzero;"/><path d="M730.813,3058.07c0,0 -9.146,0.914 -12.374,-5.38c-3.228,-6.295 -49.548,-184.474 -33.032,-209.275c16.516,-24.801 176.566,-193.298 185.174,-199.377c8.607,-6.079 29.158,9.845 29.158,9.845l0,105.983c0,0 -139.068,117.495 -139.068,123.736c0,6.24 26.146,137.185 26.146,137.185l-56.004,37.283Z" style="fill:#ffbb46;fill-rule:nonzero;"/><path d="M1305.91,3057.59c0,0 43.631,64.235 47.289,64.557c3.658,0.323 115.182,-172.154 114.268,-174.898c-0.915,-2.743 -8.716,-10.759 -13.773,-7.801c-5.057,2.959 -61.491,57.834 -131.698,14.257l-16.086,103.885Z" style="fill:#1431a5;fill-rule:nonzero;"/><path d="M990.766,2548.28c0,0 -12.266,25.554 -12.266,43.039l0,44.061l-74.995,-10.33l13.719,-71.605l54.067,-3.605l19.475,-1.56Z" style="fill:#6774ff;fill-rule:nonzero;"/><path d="M868.805,3033.86c0,0 48.849,164.623 110.341,131.591c61.491,-33.032 179.901,-233.162 201.044,-223.048c21.143,10.114 129.438,134.012 129.438,134.012c0,0 20.175,-123.736 16.517,-134.496c-3.659,-10.759 -132.237,-141.543 -152.411,-141.489c-28.674,0 -139.499,118.894 -139.499,118.894l-14.687,-39.488c0,0 -145.417,138.1 -150.743,154.024Z" style="fill:#01008a;fill-rule:nonzero;"/><path d="M990.766,2548.28c0,0 -12.266,25.554 -12.266,43.039l0,40.187l-11.943,0.807c0,0 5.057,-42.124 2.313,-50.947c-2.744,-8.823 -13.396,-0.699 -14.256,0l16.677,-31.472l19.475,-1.614Z" style="fill:#4f5cd3;fill-rule:nonzero;"/><path d="M1032.62,2836.15c8.285,13.772 13.073,36.475 10.329,40.617c-0.914,1.292 -16.731,17.646 -38.788,39.488c-46.912,46.267 -121.746,116.958 -139.499,118.841c0,0 -4.196,-37.659 -7.586,-46.159c-3.389,-8.5 -1.398,-28.19 0,-34.377c1.399,-6.187 -15.87,-10.76 -17.915,-23.456c-2.044,-12.697 17.216,-245.105 21.52,-269.852c4.304,-24.748 39.273,-30.988 39.273,-30.988c0,0 107.596,3.443 114.697,10.006c7.102,6.564 43.039,70.261 49.065,91.834c0.598,1.727 0.854,3.555 0.753,5.38c-2.26,11.889 -40.08,84.893 -31.849,98.666Z" style="fill:#fff;fill-rule:nonzero;"/><path d="M903.182,2619.29l75.049,6.187c0,0 4.627,26.146 12.266,35.776l-90.758,-30.988l3.443,-10.975Z" style="fill:#e5e5e5;fill-rule:nonzero;"/><path d="M1231.24,2595.51c0,0 12.051,-41.317 15.817,-45.459c9.011,-8.249 18.693,-15.735 28.944,-22.381c1.344,0.377 5.379,5.38 0,12.751c-5.38,7.37 -3.121,13.772 -1.399,13.449c1.721,-0.323 42.662,-47.181 45.782,-47.181c3.12,0 8.285,1.722 9.307,5.38c1.022,3.658 -6.025,80.213 -12.32,91.457c-6.294,11.244 -55.143,45.782 -58.586,48.418c-3.443,2.637 -27.545,-56.434 -27.545,-56.434Z" style="fill:#6774ff;fill-rule:nonzero;"/><path d="M1032.62,2836.15c8.285,13.772 13.073,36.475 10.329,40.617c-0.914,1.292 -16.731,17.646 -38.788,39.488c18.184,-34.646 -4.788,-67.086 -2.098,-83.548c2.69,-16.463 -12.804,-20.659 -78.922,-52.776c-66.118,-32.118 -58.748,-83.173 -58.748,-83.173l199.054,35.292c0.598,1.727 0.854,3.555 0.753,5.38c-1.991,11.943 -39.811,84.947 -31.58,98.72Z" style="fill:#cbcbcb;fill-rule:nonzero;"/><path d="M1209.56,2612.41c-1.023,-0.377 23.671,-23.672 23.671,-23.672c0,0 40.241,28.998 29.266,59.878l-31.257,26.899c0,0 0.7,-54.874 -21.68,-63.105Z" style="fill:#ff931e;fill-rule:nonzero;"/><path d="M1231.24,2675.24c0,0 -163.493,133.85 -176.835,133.85c-13.342,0 -181.999,-71.39 -190.015,-112.331c-8.016,-40.94 26.361,-64.127 42.662,-56.542c7.37,3.39 35.668,17.323 65.311,31.419c36.421,17.269 74.941,34.646 79.514,32.924c8.231,-3.066 157.629,-92.21 157.629,-92.21c38.573,17 21.734,62.89 21.734,62.89Z" style="fill:#ffd648;fill-rule:nonzero;"/><path d="M910.768,2417.01c0,0 86.723,73.65 98.451,85.378c11.728,11.728 0.699,23.402 -4.842,31.687c-5.541,8.285 -54.39,50.947 -54.39,50.947c0,0 -63.321,-7.585 -65.365,-11.028c-2.044,-3.443 -30.988,-73.005 -30.988,-73.005c0,0 36.475,-93.77 57.134,-83.979Z" style="fill:#6774ff;fill-rule:nonzero;"/><path d="M924.54,2433.58c0,0 8.823,32.279 2.367,50.033c-6.455,17.753 -4.465,42.715 14.149,50.301l-39.595,-5.864l-22.488,-122.875c0,0 43.093,17.215 45.567,28.405Z" style="fill:#4f5cd3;fill-rule:nonzero;"/><path d="M941.056,2533.91c0,0 -25.984,-2.367 -26.146,14.31c-0.161,16.678 41.264,16.14 44.061,12.535l-51.754,43.039l-48.095,10.06c0,0 -88.122,-80.697 -50.947,-165.914c37.174,-85.216 78.491,-39.918 78.491,-39.918c0,0 -1.398,-25.5 16.516,-23.402c17.915,2.098 37.283,57.672 37.283,57.672c0,0 -24.21,-14.311 -26.254,-11.567c0,0 20.659,32.279 10.329,63.536c-10.329,31.257 16.516,39.649 16.516,39.649Z" style="fill:#1530a3;fill-rule:nonzero;"/><path d="M924.54,2551.13c3.01,-5.673 8.929,-9.234 15.351,-9.234c4.257,0 8.368,1.564 11.548,4.393c3.181,2.828 -9.683,-5.165 -26.899,4.841Z" style="fill:#4f5cd3;fill-rule:nonzero;"/><path d="M972.421,2671.69c36.421,17.27 74.941,34.647 79.514,32.925l-41.264,15.171c4.95,-2.259 21.036,-13.342 -38.25,-48.096Z" style="fill:#febc46;fill-rule:nonzero;"/><path d="M3343.79,3390.33l0,166.29c0,29.513 -24.285,53.799 -53.798,53.799l-913.871,0c-29.513,0 -53.799,-24.286 -53.799,-53.799l0,-166.29l1021.47,0l-0.002,0Z" style="fill:#ffd648;fill-rule:nonzero;"/><rect x="2429.49" y="3453.7" width="403.433" height="112.923" style="fill:#ffbc49;"/><rect x="2955.48" y="3479.85" width="37.175" height="55.089" style="fill:#01008a;"/><rect x="3038.11" y="3479.85" width="37.175" height="55.089" style="fill:#1631a4;"/><rect x="3120.75" y="3479.85" width="37.175" height="55.089" style="fill:#01008a;"/><rect x="3203.32" y="3479.85" width="37.175" height="55.089" style="fill:#1631a4;"/><rect x="2322.11" y="3390.33" width="1021.68" height="40.403" style="fill:#ff931e;"/><path d="M3422.71,2700.02c0,-31.758 -25.783,-57.542 -57.541,-57.542l-1085.59,0c-31.758,0 -57.542,25.784 -57.542,57.542l0,651.165c0,31.758 25.784,57.542 57.542,57.542l1085.59,0c31.758,0 57.541,-25.784 57.541,-57.542l0,-651.165Z" style="fill:#01008a;"/><path d="M2341.42,2693.64l961.913,0c37.659,0 68.001,28.836 68.001,64.558l0,535.723c0,35.615 -30.45,64.558 -68.001,64.558l-961.913,0c-37.659,0 -68.001,-28.836 -68.001,-64.558l0,-535.831c0,-35.614 30.45,-64.45 68.001,-64.45Z" style="fill:#1631a4;fill-rule:nonzero;"/><path d="M3289.73,3610.63c-19.475,0 -31.257,12.696 -38.358,27.545c-6.412,14.814 -10.059,30.677 -10.76,46.804l0,118.356l-505.435,0l0,-110.071c0.611,-19.91 -5.832,-39.409 -18.183,-55.036c-10.694,-12.996 -24.969,-22.574 -41.049,-27.544l613.785,-0.054Z" style="fill:#1631a4;fill-rule:nonzero;"/><path d="M3289.73,3610.63c-19.475,0 -31.257,12.696 -38.358,27.545l-534.378,0c-10.694,-12.996 -24.969,-22.575 -41.049,-27.545l613.785,0Z" style="fill:#01008a;fill-rule:nonzero;"/><path d="M2772.35,3782.84l0,20.551l-37.175,0l0,-71.874l62.353,-2.959l5.81,22.541c-33.14,0.108 -30.988,31.741 -30.988,31.741Z" style="fill:#01008a;fill-rule:nonzero;"/><path d="M3289.78,3834.64c0,-17.247 -14.003,-31.25 -31.25,-31.25l-928.572,0c-17.247,0 -31.25,14.003 -31.25,31.25l0,130.259c0,17.248 14.003,31.25 31.25,31.25l928.572,0c17.247,0 31.25,-14.002 31.25,-31.25l0,-130.259Z" style="fill:#ffd648;"/><path d="M3289.73,3843.8l0,111.9c0,22.135 -18.214,40.349 -40.349,40.349l-910.32,0c-22.135,0 -40.349,-18.214 -40.349,-40.349l0,-0.054c0,-0.018 14.203,27.545 41.747,27.545l913.388,0c0,0 35.883,11.136 35.883,-139.391Z" style="fill:#ff931e;fill-rule:nonzero;"/><path d="M3049.09,3707.04l0,11.029l-329.783,0c-5.405,0.069 -10.651,-1.846 -14.741,-5.38c4.102,-3.512 9.34,-5.424 14.741,-5.38l329.783,-0.269Z" style="fill:#c8cacc;fill-rule:nonzero;"/><path d="M2404.69,3610.63l-28.566,0c-29.513,0 -53.799,-24.286 -53.799,-53.798l0,-131.107l10.76,-5.38l27.491,11.352l0,126.802c0,0 -2.69,52.131 44.114,52.131Z" style="fill:#ff931e;fill-rule:nonzero;"/><path d="M2912.11,3082.6l0,-69.292l-65.311,0c-3.952,-18.79 -11.24,-36.72 -21.52,-52.938l46.052,-46.105l-49.01,-49.01l-46.052,46.105c-16.213,-10.43 -34.159,-17.882 -52.991,-22.004l0,-65.096l-69.561,0l0,65.096c-18.833,4.122 -36.779,11.574 -52.992,22.004l-46.105,-46.105l-49.01,49.01l46.105,46.105c-10.43,16.213 -17.882,34.159 -22.003,52.991l-64.881,0l0,69.293l65.096,0c4.121,18.832 11.573,36.778 22.003,52.991l-46.105,46.051l49.01,49.01l46.106,-46.051c16.203,10.436 34.154,17.871 52.991,21.95l0,65.149l69.131,0l0,-65.203c18.837,-4.078 36.787,-11.514 52.991,-21.95l46.051,46.052l49.011,-49.011l-45.837,-46.051c10.437,-16.204 17.872,-34.154 21.95,-52.991l64.881,0Z" style="fill:#ffd648;fill-rule:nonzero;"/><circle cx="2688.37" cy="3047.96" r="114.806" style="fill:#1631a4;"/><path d="M3183.8,2903.78l-13.449,-44.545l-41.855,12.643c-6.304,-11.308 -14.576,-21.402 -24.425,-29.804l20.659,-38.574l-41.21,-21.949l-20.658,38.519c-12.457,-3.543 -25.447,-4.837 -38.358,-3.82l-12.643,-41.855l-44.545,13.45l12.643,41.855c-11.309,6.304 -21.402,14.575 -29.805,24.424l-38.519,-20.658l-21.789,40.833l38.574,20.658c-3.561,12.454 -4.873,25.444 -3.874,38.358l-41.855,12.643l13.45,44.545l41.855,-12.643c6.304,11.309 14.575,21.402 24.424,29.805l-20.658,38.788l40.994,22.004l20.659,-38.574c12.453,3.562 25.443,4.873 38.358,3.874l12.642,41.855l44.545,-13.45l-12.642,-41.855c11.308,-6.304 21.401,-14.575 29.804,-24.424l38.52,20.658l22.003,-40.994l-38.573,-20.551c3.59,-12.448 4.902,-25.443 3.873,-38.358l41.855,-12.858l0,0Z" style="fill:#febb46;fill-rule:nonzero;"/><path d="M3107.03,2902.65c2.188,7.237 3.3,14.756 3.3,22.315c0,42.292 -34.801,77.093 -77.093,77.093c-42.292,0 -77.093,-34.801 -77.093,-77.093c0,-33.895 22.355,-63.999 54.802,-73.799c40.477,-12.226 83.845,11.012 96.084,51.484Z" style="fill:#1631a4;fill-rule:nonzero;"/><path d="M2135.06,410.635c0,0 204.433,-29.374 243.222,-178.072c38.789,-148.699 200.13,-163.385 200.13,-163.385c0,0 -122.983,18.345 -137.67,247.848c-14.687,229.504 -129.439,249.678 -129.439,249.678c0,0 33.463,-145.094 -176.243,-156.069Z" style="fill:#ff873d;fill-rule:nonzero;"/><path d="M2611.2,928.677c-1.015,-6.9 -9.745,-42.074 -17.321,-52.474c-7.577,-10.4 12.686,-37.987 12.686,-37.987l9.351,2.305c0,0 22.627,-34.262 28.387,-28.852c5.76,5.408 60.514,53.699 54.023,59.801c-6.491,6.101 -31.807,28.342 -34.571,36.858c-2.765,8.517 -7.097,31.496 -7.097,31.496l-45.458,-11.147Z" style="fill:#6774ff;fill-rule:nonzero;"/><path d="M2841.38,1068.15l-740.964,-666.184c-2.867,-2.59 -4.505,-6.277 -4.505,-10.141c0,-3.389 1.261,-6.661 3.537,-9.173c5.047,-5.562 13.762,-6.022 19.367,-1.022l740.91,666.184c2.885,2.591 4.535,6.29 4.535,10.167c0,3.377 -1.252,6.638 -3.513,9.147c-5.048,5.562 -13.762,6.022 -19.367,1.022Z" style="fill:#01008a;fill-rule:nonzero;"/><path d="M2616.56,829.186l-2.368,17.484c0,0 59.179,43.631 61.976,42.232c2.67,-2.718 4.837,-5.887 6.402,-9.361l-66.01,-50.355Z" style="fill:#6774ff;fill-rule:nonzero;"/><path d="M2257.99,1623.84l-101.715,243.622c0,0 9.225,50.436 36.343,43.248c2.126,-4.514 65.372,-286.87 65.372,-286.87Z" style="fill:#01008a;fill-rule:nonzero;"/><path d="M2465.52,1639.4l69.305,190.342c0,0 -1.195,44.421 -29.946,45.057l-39.359,-235.399Z" style="fill:#01008a;fill-rule:nonzero;"/><path d="M2177.2,2371.2c0,0 42.841,52.175 50.56,42.337c7.72,-9.838 4.533,-13.2 7.72,-9.838c3.187,3.362 -14.903,50.778 -2.878,70.71c11.995,19.894 29.476,33.894 28.514,42.124c-0.962,8.23 -93.613,-6.181 -93.613,-6.181c0,0 -25.995,-99.946 -25.193,-106.213c0.435,-3.425 34.89,-32.939 34.89,-32.939Z" style="fill:#1431a5;fill-rule:nonzero;"/><path d="M2179.61,2374.05c0,0 93.262,-310.478 95.122,-326.389c1.86,-15.91 -3.297,-63.681 -3.297,-63.681c0,0 110.136,23.024 109.616,32.522c-0.519,9.498 -4.953,32.268 -11.303,50.608c-6.319,18.379 -134.266,336.55 -134.266,336.55l-15.682,26.809c0.031,0.038 -47.077,-33.484 -40.19,-56.419Z" style="fill:#6774ff;fill-rule:nonzero;"/><path d="M2323.87,2362.69c0,0 44.275,65.482 48.088,53.38c3.813,-12.103 7.039,-19.477 8.031,-17.553c0.957,1.919 3.791,64.503 9.356,68.039c5.561,3.57 43.854,38.46 44.297,45.081c0.408,6.617 -95.192,-2.785 -95.192,-2.785c0,0 -56.577,-83.048 -57.364,-91.482c-0.476,-4.853 42.784,-54.68 42.784,-54.68Z" style="fill:#1431a5;fill-rule:nonzero;"/><path d="M2323.9,2367.45c0,0 53.379,-297.865 52.224,-307.906c-1.151,-10.076 -1.219,-58.259 -1.219,-58.259l114.141,-66.256c0,0 -16.227,118.299 -25.975,160.956c-9.748,42.657 -83.121,302.522 -83.121,302.522l-10.153,28.879l-27.65,-5.213l-18.247,-54.723Z" style="fill:#6774ff;fill-rule:nonzero;"/><path d="M2422.8,1235.79c0,0 12.225,-7.098 16.934,-10.933c4.709,-3.835 100.383,-88.713 108.141,-102.145c7.759,-13.433 58.107,-195.667 58.107,-195.667l55.667,14.095c0,0 -38.487,199.944 -42.982,208.607c-4.492,8.628 -144.725,169.809 -150.736,171.473c-5.948,1.707 -45.131,-85.43 -45.131,-85.43Z" style="fill:#cbcbcb;fill-rule:nonzero;"/><path d="M2265.45,1061.26c-1.927,-0.469 -37.407,-10.352 -33.548,-5.903c3.86,4.448 2.57,8.642 0.945,8.869c-1.622,0.193 -68.56,-26.331 -97.138,102.481c-28.579,128.812 -6.214,168.827 -6.214,168.827c0,0 -2.183,-28.897 37.429,-40.985c39.613,-12.089 65.56,-118.094 61.97,-162.31c-3.591,-44.216 42.454,-33.724 42.454,-33.724c0,0 3.018,-35.031 -5.898,-37.255Z" style="fill:#1530a3;fill-rule:nonzero;"/><path d="M2424.19,1177.32c-0.891,-0.104 -13.28,4.183 -14.899,18.036c-1.62,13.853 -5.158,31.34 -5.158,31.34c0,0 -7.404,0.004 -17.434,-0.126c-20.771,-0.134 -52.553,-0.616 -52.245,-1.762c0.478,-1.717 9.841,-69.028 9.841,-69.028l37.774,10.186l42.121,11.354Z" style="fill:#6774ff;fill-rule:nonzero;"/><path d="M2474.13,1616.88c0,0 -8.196,1.128 -21.375,2.368c-45.837,4.374 -151.691,10.145 -179.6,-25.86c-0.196,-0.405 0.036,-3.576 0.476,-8.53c1.773,-20.822 7.238,-73.225 2.502,-85.04c-5.834,-14.62 -33.057,-54.404 -36.043,-96.95c-0.647,-9.634 -0.383,-20.517 0.5,-31.641c2.909,-37.964 12.346,-78.259 12.346,-78.259c7.693,-7.825 59.719,-37.198 93.343,-52.767c33.662,-15.599 89.016,-29.428 94.26,-26.417c5.176,3.004 67.224,95.45 69.84,107.261c1.662,7.494 -11.591,50.992 -22.625,84.426c-6.443,19.442 -12.109,35.498 -13.746,39.096c-4.341,9.781 0.122,172.313 0.122,172.313Z" style="fill:#ffd648;fill-rule:nonzero;"/><path d="M2424.19,1177.32c-0.891,-0.104 -13.28,4.183 -14.899,18.036c-1.62,13.853 -5.158,31.34 -5.158,31.34c0,0 -7.404,0.004 -17.434,-0.126c2.951,-10.083 6.082,-22.299 6.603,-32.701c0.926,-20.712 -20.379,-19.24 -22.134,-19.097c0.694,-0.58 5.267,-4.32 10.897,-8.772l42.125,11.32Z" style="fill:#4f5cd3;fill-rule:nonzero;"/><path d="M2474.13,1616.88c0,0 -8.196,1.128 -21.375,2.368c-6.91,-5.118 -13.43,-9.704 -16.115,-10.817c22.909,-11.33 29.011,-65.014 26.33,-103.631c-2.651,-38.58 -26.946,-35.024 -26.946,-35.024c30.53,-5.747 51.678,-64.45 51.678,-64.45l0.03,0.038c-6.444,19.442 -12.109,35.499 -13.746,39.096c-4.319,9.888 0.144,172.42 0.144,172.42Z" style="fill:#febc46;fill-rule:nonzero;"/><path d="M2328.49,1252.37c0,0 0.909,-35.73 4.497,-38.473c3.592,-2.778 73.802,-11.673 77.754,-8.013c3.951,3.66 1.729,39.619 0.576,42.647c-1.153,3.028 -1.781,22.072 -82.827,3.839Z" style="fill:#ffbb46;fill-rule:nonzero;"/><path d="M2298.91,1503.63l-25.306,81.193c1.773,-20.822 7.238,-73.225 2.502,-85.041c-5.834,-14.62 -33.057,-54.403 -36.044,-96.949c-0.646,-9.634 -0.382,-20.518 0.501,-31.642c13.036,0.586 50.954,2.098 50.954,2.098c0,0 -30.873,33.966 -28.277,58.148c2.496,24.137 35.67,72.193 35.67,72.193Z" style="fill:#febc46;fill-rule:nonzero;"/><path d="M2291.49,1373.25c-1.349,8.567 -30.078,40.245 -57.73,68.956l-0.004,0.035c-23.36,24.103 -45.885,46.114 -50.74,50.482c-3.84,3.409 -8.191,21.01 -12.473,43.068c0.03,0.038 0.018,0.141 -0.028,0.24c-1.033,5.267 -2.025,10.782 -3.029,16.4c-0.091,0.476 -0.127,0.784 -0.143,0.922c-6.395,36.27 -12.06,77.006 -14.543,87.247c-2.61,10.436 -9.376,34.115 -9.376,34.115c0,0 -36.571,25.617 -48.536,21.821c-11.931,-3.793 20.2,-228.715 23.771,-239.039c3.604,-10.319 121.739,-157.721 134.257,-164.6c12.522,-6.913 41.017,64.511 38.574,80.353Z" style="fill:#fff;fill-rule:nonzero;"/><path d="M2519.23,1901.92c-2.891,11.654 -7.376,20.584 -12.314,27.445l-0.035,-0.004c-13.219,18.232 -29.995,21.694 -29.995,21.694l0.03,0.038c2.803,9.921 -4.705,32.818 -25.48,33.622c-20.772,0.77 -20.331,10.38 -29.27,39.576c-3.069,9.895 -10.516,13.543 -19.013,13.975c-16.579,0.877 -37.149,-10.182 -37.149,-10.182c0,0 -2.734,10.004 -31.199,8.206c-2.245,-0.124 -4.333,-0.403 -6.298,-0.841c-23.203,-4.589 -30.04,-24.61 -53.1,-15.557c-7.356,2.86 -14.3,4.585 -20.808,5.249c-63.005,7.026 -91.124,-75.65 -91.124,-75.65l94.584,-325.652l206.512,10.619l54.659,267.462Z" style="fill:#1431a5;fill-rule:nonzero;"/><path d="M2257.99,1623.84c0,0 -6.725,-33.459 15.555,-38.815c0,0 63.41,51.66 200.16,15.299c0,0 11.437,22.296 0.291,35.279c0,0 -77.582,43.417 -216.006,-11.763Z" style="fill:#ff931e;fill-rule:nonzero;"/><path d="M2102.03,1703.17c0,0 -17.209,42.549 -18.052,56.006c-0.839,13.423 -0.232,57.29 4.464,60.238c4.695,2.947 37.008,-20.735 39.621,-33.569c2.578,-12.837 7.435,-38.929 12.477,-41.92c5.042,-2.991 5.882,8.265 6.282,17.036c0.395,8.805 4.002,12.147 8.859,7.466c4.858,-4.681 2.471,-34.818 2.77,-40.344c0.298,-5.527 -11.402,-43.113 -13.927,-46.189c-2.521,-3.11 -42.494,21.276 -42.494,21.276Z" style="fill:#6774ff;fill-rule:nonzero;"/><path d="M2099.46,1709.69l49.533,-16.664c0,0 3.304,-17.862 -5.581,-18.275c-8.884,-0.413 -50.315,16.816 -48.532,21.787c1.783,4.97 4.58,13.152 4.58,13.152Z" style="fill:#ffbb46;fill-rule:nonzero;"/><path d="M2233.75,1442.24c-23.36,24.103 -45.885,46.114 -50.74,50.482c-3.84,3.409 -8.191,21.01 -12.473,43.068c2.624,-16.204 4.785,-38.857 -1.83,-46.791c-0.102,-4.183 44.474,-30.185 65.043,-46.759Z" style="fill:#cbcbcb;fill-rule:nonzero;"/><path d="M2328.47,2035.49c-23.204,-4.59 -30.04,-24.61 -53.1,-15.558c-7.356,2.86 -14.301,4.585 -20.809,5.25c7.23,-4.16 25.435,-18.96 34.474,-64.167c11.443,-57.162 23.036,-135.821 23.036,-135.821c0,0 -12.295,183.688 16.399,210.296Z" style="fill:#01008a;fill-rule:nonzero;"/><path d="M2372.67,1813.75l-0.085,2.806c0.025,-1.109 0.065,-2.043 0.085,-2.806Z" style="fill:#01008a;fill-rule:nonzero;"/><path d="M2403.12,2038.27c-16.578,0.877 -37.148,-10.182 -37.148,-10.182l6.305,-200.238c-1.097,49.82 -1.45,195.87 30.843,210.42Z" style="fill:#01008a;fill-rule:nonzero;"/><path d="M2441.94,1706.76c0.01,0.21 0.133,0.641 0.206,1.206l-0.206,-1.206Z" style="fill:#01008a;fill-rule:nonzero;"/><path d="M2506.85,1929.36c-13.219,18.232 -29.995,21.694 -29.995,21.694l-34.741,-243.097c3.253,17.968 38.594,209.831 64.736,221.403Z" style="fill:#01008a;fill-rule:nonzero;"/><path d="M2430.92,1068.93c0,0 24.943,47.094 20.475,75.213c-4.469,28.119 -4.371,32.336 -9.308,33.532c-4.906,1.234 -88.952,-5.011 -88.952,-5.011l-52.753,-49.163c0,0 39.708,-74.156 41.491,-73.948c1.749,0.205 82.548,5.687 89.047,19.377Z" style="fill:#6774ff;fill-rule:nonzero;"/><path d="M2359.86,1130.28c0,0 -10.715,-17.172 -22.363,-12.972c-11.649,4.2 -1.916,43.746 21.163,40.187l-18.781,30.13c0,0 -9.311,-14.609 -16.648,-13.103c-7.34,1.54 -68.861,5.089 -65.739,-74.248c3.216,-81.932 53.588,-98.046 93.083,-95.446c39.491,2.635 61.194,4.894 86.944,58.478l-50.784,37.477l-17.978,-26.398l14.904,29.202l-21.493,-23.68l13.696,29.129l-14.292,9.87c0.03,0.038 -4.278,2.697 -1.712,11.374Z" style="fill:#1530a3;fill-rule:nonzero;"/></svg>