<?xml version="1.0" encoding="UTF-8" standalone="no"?><!DOCTYPE svg PUBLIC "-//W3C//DTD SVG 1.1//EN" "http://www.w3.org/Graphics/SVG/1.1/DTD/svg11.dtd"><svg width="100%" height="100%" viewBox="0 0 4167 4167" version="1.1" xmlns="http://www.w3.org/2000/svg" xmlns:xlink="http://www.w3.org/1999/xlink" xml:space="preserve" xmlns:serif="http://www.serif.com/" style="fill-rule:evenodd;clip-rule:evenodd;stroke-linejoin:round;stroke-miterlimit:2;"><path d="M997.563,1451.73c203.584,-203.333 -295.375,-853.083 119.5,-1064.58c337.5,-172.167 658.334,389.166 1015.29,392.083c356.958,2.917 718.667,-444.75 1015.25,-224.042c301.083,224.042 -84,845.251 42.042,1014.29c126.041,169.042 846.791,231.833 847.208,589.334c0.5,398.916 -806.875,297.291 -948.167,479.166c-141.291,181.875 264.334,843.542 -25,1021.79c-268.208,165.333 -786.833,-458.334 -1006.25,-419.75c-219.416,38.583 -650.958,564.041 -961.375,339.958c-309.125,-223.125 95.834,-660.792 -2.333,-854.167c-98.167,-193.375 -962.833,-263.833 -963.917,-717.375c-1.291,-494 727.209,-416.375 867.75,-556.708l0.002,0.001Z" style="fill:#e8e8e8;fill-rule:nonzero;"/><path d="M2819.11,1788.9c-3.278,-46.028 -7.347,-91.556 -12.208,-136.583c-37.362,-25.612 -75.57,-50.806 -114.625,-75.584c5.916,44.445 10.944,89.403 15.083,134.875c11.25,120.584 17,245.125 17,371.917c0,321.458 -36.958,628.625 -106,892.25c-9.028,34.444 -18.597,68.125 -28.708,101.042c-19.445,63.166 -40.778,123.18 -64,180.041c-120.292,293.459 -280.834,461.542 -440.584,461.542c-159.75,0 -320.25,-168.25 -440.541,-461.625c-77.709,-189.625 -134.209,-417.458 -166.667,-666.667c-5.917,-44.278 -10.945,-89.222 -15.083,-134.833c-38.139,-25.333 -75.389,-51.083 -111.75,-77.25c3.277,46.083 7.347,91.625 12.208,136.625c31,292.833 93.833,561.625 184.083,781.833c139.25,339.709 330.25,526.792 537.709,526.792c207.458,0 398.5,-187.083 537.75,-526.792c25.416,-61.958 48.625,-127.791 69.625,-196.916c10,-33.028 19.5,-66.82 28.5,-101.375c70.833,-271.667 108.333,-586.417 108.333,-914.875c0.167,-99.459 -3.333,-198 -10.125,-294.417Zm-1238.58,-698.583c-34.584,-8.334 -68.848,-15.987 -102.792,-22.959c-10,33.028 -19.5,66.834 -28.5,101.417c33.75,6.639 67.944,14.167 102.583,22.583c9.056,-34.416 18.625,-68.097 28.709,-101.041Z" style="fill:#9ca6f2;fill-rule:nonzero;"/><path d="M2806.9,1652.31c-37.362,-25.612 -75.57,-50.806 -114.625,-75.584c-32.417,-249.042 -88.917,-476.875 -166.667,-666.667c-120.292,-293.375 -280.833,-461.625 -440.583,-461.625c-128.042,0 -256.75,108.334 -364.709,302.459c-25.594,-25.625 -59.487,-41.33 -95.583,-44.292c129.167,-235.708 289.042,-363.208 460.292,-363.208c207.5,0 398.5,187.083 537.75,526.833c90.291,220.459 153.125,489.25 184.125,782.084Z" style="fill:#9ca6f2;fill-rule:nonzero;"/><path d="M924.355,2008.44c-25.5,25 -50,49.999 -73.5,74.999c23.5,25.167 47.972,50.237 73.417,75.209c23.416,-25 47.861,-50.07 73.333,-75.209c-25.458,-24.749 -49.958,-49.874 -73.25,-74.999Zm2693.08,-749c-98.25,-182.75 -353.458,-262.501 -718.666,-224.084c-247.667,26 -527.959,103.625 -813.709,223.917c-44.444,18.611 -88.889,38.319 -133.333,59.125c44.444,17.278 88.889,35.639 133.333,55.083c44.695,-19.444 89.236,-37.805 133.625,-55.083c243.584,-94.875 480.042,-156.417 691,-178.542c52.675,-5.646 105.607,-8.552 158.584,-8.708c231.5,0 394.416,62.25 456.666,178.083c75.709,140.667 3.584,361.75 -197.875,606.625c-25.416,30.889 -52.458,61.75 -81.125,92.584c-23.416,25 -47.861,50 -73.333,75c-206.25,202.583 -477.792,397.916 -784.708,563.041c-100.75,54.167 -202.125,103.333 -302.834,147.083c-44.666,19.445 -89.194,37.82 -133.583,55.126c44.639,20.722 89.167,40.416 133.583,59.083c44.445,-18.639 88.959,-38.334 133.542,-59.084c73.111,-33.944 146.125,-70.513 219.042,-109.708c315.083,-169.542 594.666,-370.833 808.333,-580.333c25.5,-25 50,-50.07 73.5,-75.209c31.472,-33.583 61.097,-67.263 88.875,-101.041c233.125,-283.375 307.375,-540.209 209.083,-722.959l0,0.001Z" style="fill:#1431a5;fill-rule:nonzero;"/><path d="M2085.06,2907.94c-285.708,120.291 -566,197.958 -813.666,223.916c-56.744,6.094 -113.765,9.237 -170.834,9.417c-274.083,0 -465.916,-80.667 -548.041,-233.334c-70.834,-131.708 -52.042,-301.916 51.375,-492.916c21.207,29.575 52.217,50.705 87.5,59.625c-80.709,153.416 -98.084,287.291 -46.334,383.333c75.625,140.667 300,202.417 615.25,169.375c210.959,-22.125 447.417,-83.667 691,-178.542c44.75,20.75 89.334,40.459 133.75,59.125l0,0.001Z" style="fill:#1431a5;fill-rule:nonzero;"/><path d="M3245.94,2008.44c-125.541,-123.167 -274,-243.459 -439.041,-356.126c-37.362,-25.611 -75.57,-50.805 -114.625,-75.583c-81.695,-51.75 -166.57,-101.319 -254.625,-148.708c-72.75,-39.056 -145.737,-75.597 -218.959,-109.625c-44.639,-20.75 -89.18,-40.459 -133.625,-59.125c-172.166,-72.458 -342.291,-129.375 -504.541,-168.958c-34.584,-8.334 -68.848,-15.987 -102.792,-22.959c-70.833,-14.291 -139.75,-25 -206.333,-32c-365.167,-38.208 -620.417,41.334 -718.667,224.084c-98.25,182.75 -24,439.583 209.125,723.125c27.778,33.749 57.403,67.43 88.875,101.041c23.5,25.167 47.972,50.236 73.417,75.208c125.541,123.167 274,243.459 439.041,356.125c37.389,25.639 75.597,50.792 114.625,75.459c81.778,51.75 166.736,101.361 254.875,148.833c72.75,39.139 145.736,75.709 218.959,109.709c44.638,20.722 89.166,40.416 133.583,59.083c44.444,-18.639 88.958,-38.334 133.542,-59.083c-44.445,-17.278 -88.959,-35.653 -133.542,-55.125c-100.667,-43.75 -202.042,-92.917 -302.792,-147.084c-111.625,-60.083 -218.625,-124.166 -319.458,-191.083c-38.139,-25.333 -75.389,-51.083 -111.75,-77.25c-131.542,-94.5 -250.667,-193.667 -353.5,-294.708c-25.417,-25 -50,-50 -73.25,-75c-28.708,-30.75 -55.792,-61.709 -81.208,-92.584c-201.625,-245.125 -273.75,-466.208 -198.084,-606.875c62.25,-115.833 225,-178.083 456.667,-178.083c52.976,0.156 105.909,3.062 158.583,8.708c60.917,6.375 124,16.084 188.75,28.917c33.75,6.639 67.945,14.167 102.584,22.583c135.923,33.471 269.48,75.911 399.791,127.042c44.445,17.278 88.889,35.639 133.334,55.083c100.708,43.792 202.083,92.917 302.833,147.125c111.625,60.292 218.792,124.125 319.625,191.084c38.139,25.333 75.389,51.069 111.75,77.208c131.542,94.542 250.667,193.667 353.5,294.708c25.417,25 50,50 73.25,75.208c25.5,-25 50,-50.069 73.5,-75.208c-23.5,-25.111 -47.972,-50.166 -73.417,-75.166Z" style="fill:#7e8dfc;fill-rule:nonzero;"/><path d="M3617.44,2907.81c-82.125,152.791 -273.958,233.333 -548.041,233.333c-57,-0.189 -113.951,-3.332 -170.625,-9.417c-66.667,-7 -135.542,-17.708 -206.334,-32c-33.916,-6.833 -68.18,-14.486 -102.791,-22.958c-162.25,-39.542 -332.375,-96.458 -504.584,-168.958c44.445,-18.639 88.959,-38.334 133.542,-59.084c130.299,51.116 263.841,93.542 399.75,127c34.583,8.334 68.778,15.875 102.583,22.625c64.75,12.834 127.834,22.542 188.75,28.917c315.375,33.042 539.625,-28.708 615.25,-169.375c55.667,-103.5 31.375,-250.542 -65.666,-418.5c34.235,-14.183 62.235,-40.244 78.833,-73.375c127.583,210.708 156.167,398.958 79.333,541.791l0,0.001Z" style="fill:#6774ff;fill-rule:nonzero;"/><path d="M2085.06,1373.48c-100.666,43.792 -202.041,92.917 -302.791,147.125c-306.917,165.083 -578.459,360.292 -784.709,563c-25.416,-25 -50,-50 -73.25,-75c213.542,-209.5 493.125,-410.833 808.334,-580.333c72.75,-39.111 145.763,-75.681 219.041,-109.709c44.25,17.195 88.709,35.5 133.375,54.917Z" style="fill:#1431a5;fill-rule:nonzero;"/><path d="M1445.81,2083.6c0,126.833 5.75,251.375 17,371.958c-38.139,-25.333 -75.389,-51.083 -111.75,-77.25c-6.791,-96.416 -10.291,-194.916 -10.291,-294.708c0,-328.458 37.833,-643.167 108.333,-914.833c33.75,6.639 67.944,14.166 102.583,22.583c-69,263.625 -105.875,570.792 -105.875,892.25Z" style="fill:#9ca6f2;fill-rule:nonzero;"/><path d="M1765.61,860.062c-0.046,84.314 -69.437,153.667 -153.75,153.667l-6.292,0c-83.146,-1.701 -150.615,-70.566 -150.615,-153.729c0,-84.351 69.41,-153.761 153.761,-153.761c1.049,0 2.097,0.01 3.146,0.032c4.167,0 8.667,0 12.875,0.583c79.209,6.676 140.854,73.719 140.875,153.208Z" style="fill:#f9a916;fill-rule:nonzero;"/><path d="M882.688,2325.48l0,0.12c0,84.46 -69.499,153.959 -153.958,153.959c-84.459,0 -153.958,-69.499 -153.958,-153.959c0,-84.459 69.499,-153.958 153.958,-153.958c50.142,0 97.247,24.496 126.042,65.546c18.157,25.858 27.908,56.696 27.916,88.292Z" style="fill:#ff873d;fill-rule:nonzero;"/><path d="M3554.36,2297.56c0.066,23.874 -5.502,47.431 -16.25,68.749c-25.982,52.032 -79.359,85.04 -137.517,85.04c-84.322,0 -153.708,-69.387 -153.708,-153.708c0,-74.931 54.791,-139.486 128.725,-151.665c8.34,-1.428 16.788,-2.139 25.25,-2.125c84.243,0.114 153.5,69.465 153.5,153.709Z" style="fill:#ff873d;fill-rule:nonzero;"/><path d="M2534.94,2354.65c-4.336,10.769 -9.245,21.298 -14.708,31.542c-2.625,5.374 -5.583,11.124 -8.333,16.666c-11.875,22.75 -24.417,45.292 -27.5,47.042c-6.167,3.5 -27.167,-2.292 -28.584,-6.667c-1.416,-4.375 6.125,-59.833 7.292,-72.083c0.173,-1.494 0.271,-2.996 0.292,-4.5c0.333,-7 -0.792,-11.25 -4.917,-13.709c-1.464,-0.902 -3.07,-1.55 -4.75,-1.916c-9.292,-2.292 -11.625,13.458 -15.125,22.5c-3.5,9.041 -16.667,6.708 -16.667,6.708c0,0 -4.958,-44.375 -3.208,-54.875c1.75,-10.5 38.833,-71.167 41.667,-75.292c2.833,-4.125 68.291,-0.833 66.25,11.125c-2.042,11.959 10.625,84.709 8.291,93.459Z" style="fill:#6774ff;fill-rule:nonzero;"/><path d="M1987.65,2980.15c0,0 -8.75,200.75 -11.084,212.5c-2.333,11.75 77,-14.584 77.584,-79.959c0.583,-65.375 32.125,-57.75 35.041,-74.083c2.917,-16.333 -51.958,-79.958 -51.958,-79.958l-49.583,21.5Z" style="fill:#01008a;fill-rule:nonzero;"/><path d="M2219.27,3215.9c0,0 -15.75,96.833 -16.917,148.791c-1.167,51.959 -6.417,104.417 -53,116.209c-46.583,11.791 -61.25,-94.542 -51.333,-109.125c9.916,-14.584 28,-42 12.833,-77.042c-15.167,-35.042 8.333,-59.5 46.375,-91.667c38.042,-32.166 62.042,12.834 62.042,12.834Z" style="fill:#01008a;fill-rule:nonzero;"/><path d="M2449.61,2252.27c0,0 30.667,16.666 80.083,17.041l10.959,-52.958l-79.667,-14.417l-11.375,50.334Z" style="fill:#1530a3;fill-rule:nonzero;"/><path d="M1885.11,1366.98c-7.299,14.717 -12.556,30.362 -15.625,46.5c-3.458,22.75 -238.917,1550.33 -257.625,1599.38c0,0 63,55.333 170.417,-93.375c30.333,-42 86.333,9.333 177.375,-14c91.041,-23.333 67.666,-103.875 154.166,-80.542c86.5,23.334 145.834,194.917 316.25,158.709c0,0 -97.291,-1593.5 -98.333,-1607.04c-1.042,-13.542 -107.375,-31.542 -107.375,-31.542l-156.208,34.167l-155.375,-20.167l-27.667,7.917l0,-0.007Z" style="fill:#ff873d;fill-rule:nonzero;"/><path d="M2326.11,2690.77c1.083,43.166 -93.417,536.833 -93.417,536.833c-66.666,38.5 -116.666,-23.417 -116.666,-23.417c0,0 23.333,-518.125 23.333,-527.458c0,-8.333 -36.333,-269.958 -54.167,-336.917c-0.032,-0.094 -0.032,-0.197 0,-0.291c-2.583,-9.667 -4.791,-15.167 -6.416,-15.167c-12.834,0 -85.167,238.042 -73.542,266.042c11.625,28 59.542,371.125 59.542,371.125c-8.179,10.628 -19.161,18.767 -31.709,23.5c-35.583,13.583 -74.458,-2.5 -74.458,-2.5c0,0 -107.417,-387.5 -112,-421.292c-4.583,-33.792 36.083,-453.958 36.083,-453.958l416.667,-71.208c0,0 25.542,611.499 26.75,654.708Z" style="fill:#1431a5;fill-rule:nonzero;"/><path d="M2124.36,2083.6c0,0 -5.25,136.833 -7.583,155.542c-2.334,18.708 -47.875,33.833 -47.875,33.833l8.75,-202.458l46.708,13.083Z" style="fill:#01008a;fill-rule:nonzero;"/><path d="M2592.15,1875.6c0.583,14 -44.042,354.792 -44.042,354.792c-49.5,2.166 -112.5,-25.875 -112.5,-25.875c0,0 13.583,-259.459 13,-270.542c-0.583,-11.083 -106.208,-276 -113.708,-285.542c-3.084,-3.916 1.708,-44.041 8.333,-89.875c9.542,-65.291 22.833,-142.083 22.833,-142.083c30.125,10.583 225.459,445.125 226.084,459.125Z" style="fill:#ffd648;fill-rule:nonzero;"/><path d="M1890.77,2060.56c0,-0.001 208.333,48.166 388.625,5.291l-155.792,-216.208l-176.792,22.916l-56.041,188l0,0.001Z" style="fill:#ffd648;fill-rule:nonzero;"/><path d="M2435.61,2204.52c0,0 13.583,-259.459 13,-270.542c-0.583,-11.083 -106.208,-276 -113.708,-285.542c-3.084,-3.916 1.708,-44.041 8.333,-89.875l7.625,-7.416c0,0 -3.208,89.333 31.792,168.083c35,78.75 94.041,194.333 94.041,194.333l-41.083,290.959Z" style="fill:#febc46;fill-rule:nonzero;"/><path d="M2345.9,2095.6c-18.03,16.068 -39.059,28.416 -61.875,36.333c-59.959,21.75 -121.375,16.042 -121.375,16.042l-58.334,-270.833l-78.208,269.541c-45.375,4.417 -97.292,-6.5 -135.375,-17.416c-18.574,-5.256 -36.862,-11.473 -54.792,-18.625c-17.929,-7.152 67.584,-254.292 67.584,-258.917c0,-4.625 -9.334,-3.5 -14,-16.417c-0.625,-1.75 -2.042,-11.25 -3.875,-26.25c-2,-16.083 -4.542,-38.5 -7.417,-64.666c-2.875,-26.167 -6.083,-57.167 -9.25,-88.667c-0.625,-7.083 -1.333,-14.125 -2,-21.292c-11.083,-112.25 -21.167,-230.125 -17.083,-232.583c7.111,-2.982 14.37,-5.596 21.75,-7.833c15.291,-5.125 36.833,-12.042 59.541,-19.292l8.792,-2.708l22,-6.917l8.667,-2.75l12.5,-3.917l8.041,-2.541l28.084,-8.75l5.625,-1.75l4.958,-1.542l12.125,-3.75c0,0 134.417,6.292 145.833,9.375c11.417,3.083 181.125,60.75 182.459,70.833c0.916,6.792 -22.542,150 -38.792,248.375c0.008,0.098 0.008,0.195 0,0.292c-1.333,8.042 -2.625,15.833 -3.875,23.083c-5.875,35.917 -10.208,62.5 -11,68c-2.833,20.834 11.708,26.875 14.042,35c2.333,8.125 -18.625,34.459 -24.542,50.792c-5.917,16.333 39.792,249.75 39.792,249.75Z" style="fill:#fff;fill-rule:nonzero;"/><path d="M2056.19,1248.81c0,-0.001 2.209,76.124 0,80.499c-2.208,4.375 -19.666,14 -19.666,14l38.5,76.584l36.833,18.375l46.292,-20.125l29.791,-68.708c0,0 -10.083,-1.292 -10.5,-18.792c-0.416,-17.5 -1.75,-93.208 -1.75,-93.208l-119.5,11.374l0,0.001Z" style="fill:#6774ff;fill-rule:nonzero;"/><path d="M2042.11,1340.1l70.125,79.958l-58.208,52.792l-11.917,-132.75Z" style="fill:#fff;fill-rule:nonzero;"/><path d="M2086.86,1443.02c0,0 6.333,11.042 25.292,11.042c18.958,0 23.75,-8.334 23.75,-8.334l-23.75,-25.625l-25.292,22.917Z" style="fill:#ffbb46;fill-rule:nonzero;"/><path d="M2098.61,1451.73c0,0 -14.917,2.208 -24.333,23.334c-9.417,21.125 -16.667,34.708 -16.667,34.708l54.583,310.125l56.292,-303.125c0,0 -19.75,-36.667 -26.542,-47.625c-4.349,-6.85 -10.014,-12.77 -16.666,-17.417l-26.667,0Z" style="fill:#ffbb46;fill-rule:nonzero;"/><path d="M2112.23,1420.06l54.25,58.499l21.458,-129.125l-75.708,70.625l0,0.001Z" style="fill:#fff;fill-rule:nonzero;"/><path d="M1924.94,1601.1l70.042,-100l-123.25,-107.25c15.292,-5.125 36.833,-12.041 59.542,-19.292l8.791,-2.708l22,-6.917l8.667,-2.75l12.5,-3.916l8.042,-2.542l28.083,-8.75l5.625,-1.75l4.958,-1.542l12.125,-3.75l70.084,479.75l-187.209,-218.583Z" style="fill:#ffd648;fill-rule:nonzero;"/><path d="M2187.94,1349.44l-75.708,470.458c0,0 177.083,-202.75 177.083,-205.084c0,-2.333 -70.833,-113.208 -70.833,-113.208l112.917,-100.792c0,0 -101.334,-43.625 -143.459,-51.375l0,0.001Z" style="fill:#ffd648;fill-rule:nonzero;"/><path d="M1964.02,1581.23c0,0 45.833,-65.042 59.791,-68.833c13.959,-3.792 25.959,9.042 25.959,9.042c0,0 41.666,-28.292 48.458,-30.625c6.792,-2.334 15.167,9.625 4.958,22.75c-10.208,13.124 13.125,4.166 20.834,1.458c7.708,-2.708 17.5,7.292 8.333,20.833c-9.167,13.542 -9.917,17.042 -7.875,21.708c2.042,4.667 16.333,42.917 6.417,51.667c-9.917,8.75 -53.417,44.042 -62.5,46.375c-9.084,2.333 -101.209,19.542 -101.209,19.542l-3.166,-93.917Z" style="fill:#6774ff;fill-rule:nonzero;"/><path d="M1972.52,1569.44l7.416,103.374l-32.25,26.584l-17.083,-91.667l41.917,-38.292l0,0.001Z" style="fill:#1530a3;fill-rule:nonzero;"/><path d="M1948.94,1375.52l19.292,-6.208c0.797,-0.259 1.63,-0.391 2.468,-0.391c3.516,0 6.638,2.317 7.657,5.682l2.292,7.333c1.269,4.204 -1.107,8.713 -5.292,10.042l-19.5,6.167c-0.784,0.249 -1.601,0.376 -2.424,0.376c-3.573,0 -6.734,-2.394 -7.701,-5.834l-2.083,-7.334c-1.164,-4.142 1.193,-8.522 5.291,-9.833Z" style="fill:#1530a3;fill-rule:nonzero;"/><path d="M2244.06,1373.31l23.709,9c2.084,0.778 3.196,3.095 2.5,5.208l-3.542,10.791c-0.554,1.716 -2.162,2.887 -3.965,2.887c-0.496,0 -0.987,-0.089 -1.452,-0.262l-23.833,-8.75c-2.101,-0.761 -3.234,-3.083 -2.542,-5.208l3.709,-11.083c0.565,-1.697 2.164,-2.849 3.952,-2.849c0.5,0 0.996,0.09 1.464,0.265l0,0.001Z" style="fill:#1530a3;fill-rule:nonzero;"/><path d="M1885.11,1366.98c0,0 52.75,-6.667 59.292,12.25c0,0 96.708,-31.417 97.708,-39.125c1,-7.708 0,-19.083 -12.5,-19.083c-12.5,0 -134.875,23.167 -144.5,45.958Z" style="fill:#ffd648;fill-rule:nonzero;"/><path d="M2331.61,1376.73c-1.458,-1.333 -48.75,-25 -63.833,5.708l-79.834,-32.875c0,0 3.042,-25 12.5,-24.499c9.459,0.5 105.042,20.624 117.709,28.708c7.749,5.194 12.711,13.659 13.458,22.958Z" style="fill:#ffd648;fill-rule:nonzero;"/><path d="M1914.86,1812.15c9.75,11.583 65.042,37.5 65.042,37.5c0,0 -62.5,-6.167 -65.792,6.667c-3.292,12.833 -39.292,184.416 -47.042,214.166c-7.583,28.917 21.959,57.334 23.667,58.875c-18.574,-5.256 -36.862,-11.473 -54.792,-18.625c-17.929,-7.152 67.584,-254.375 67.584,-259c0,-4.625 -9.334,-3.5 -14,-16.416c-0.625,-1.75 -2.042,-11.25 -3.875,-26.25c-2,-16.084 -4.542,-38.5 -7.417,-64.667l86.417,-59.042l20.583,68.333c0,0 -80.083,46.917 -70.375,58.459Z" style="fill:#cbcbcb;fill-rule:nonzero;"/><path d="M1964.02,1739.98c0,0 -34.459,30.458 -78.292,69.083c-74.333,65.542 -175.792,154.667 -181.708,158.751c-9.292,6.416 -80.5,-14.584 -48.375,-110.834c32.125,-96.25 159.791,-443.167 194.333,-455.25c-3.375,2.042 3,83.333 11.542,175c1.75,19 3.625,38.375 5.541,57.625l-46.291,59.75l48.291,-38.208l68.625,-54.458l26.334,138.541Z" style="fill:#ffd648;fill-rule:nonzero;"/><path d="M2065.73,1267.48c0,0 14.333,54.417 45.833,53.542c31.5,-0.875 57.084,-70.042 57.084,-70.042c0,0 -21.292,-29.75 -45.834,-21.875c-24.541,7.875 -57.083,38.375 -57.083,38.375Z" style="fill:#4f5cd3;fill-rule:nonzero;"/><path d="M2008.65,1082.06c0,-0.001 9.333,116.124 15.166,131.874c5.834,15.75 51.334,65.042 58.334,69.417c7,4.375 46.708,5.583 52.833,2.083c6.125,-3.5 61.833,-55.75 65.042,-64.208c3.208,-8.458 15.041,-120.333 15.041,-129.167c0,-8.833 -77.458,-92.791 -77.458,-92.791l-111.167,-8.334c0,0 -17.791,78.042 -17.791,91.125l0,0.001Z" style="fill:#6774ff;fill-rule:nonzero;"/><path d="M2012.69,1127.94c-5.82,-8.07 -15.877,-11.995 -25.625,-10c-16.666,3.499 8.75,75 33.334,62.166c24.583,-12.833 -7.709,-52.167 -7.709,-52.167l0,0.001Z" style="fill:#6774ff;fill-rule:nonzero;"/><path d="M2208.65,1127.94c5.813,-8.079 15.876,-12.006 25.625,-10c16.666,3.499 -8.792,75 -33.334,62.166c-24.541,-12.833 7.709,-52.167 7.709,-52.167l0,0.001Z" style="fill:#6774ff;fill-rule:nonzero;"/><path d="M2026.56,1060.06c0,-0.001 6.292,-20.167 32.709,-21.209c26.416,-1.042 52.041,5.25 56.958,21.208c4.917,15.959 51.708,51.584 85.25,51.459c33.542,-0.125 -13.542,-67.25 -13.542,-67.25l-137.291,-64.167c0,0 -63,33.833 -61.25,36.75c1.75,2.917 37.166,43.208 37.166,43.208l0,0.001Z" style="fill:#4f5cd3;fill-rule:nonzero;"/><path d="M2059.27,1038.73c0,0 17.916,-37.5 39.375,-20.125c21.458,17.375 11.375,63.917 39.833,77.042c28.458,13.125 60.375,13.125 63,15.75c2.625,2.625 8.083,38.083 8.083,38.083c0,0 7.959,-32.292 16.334,-31.917c0,0 23.791,-109.875 13.708,-134.833c-10.083,-24.958 -62.167,-38.5 -93.25,-41.125c-31.083,-2.625 -65.667,2.167 -64.333,0c1.333,-2.167 2.625,-23.208 -6.125,-20.833c-8.75,2.375 -28,32.375 -28,32.375c0,0 -20.584,-18.834 -28,-14.875c-7.417,3.958 -4.834,23.625 -4.834,23.625c0,0 -39.375,13.583 -42,25c-2.625,11.416 16.667,130.583 19.25,130.708c2.584,0.125 20.834,14.25 21.667,24.083c0,0 1.083,-36.208 1.958,-37.958c0.875,-1.75 10.5,-0.458 10.5,-35.875c0,-35.417 7.459,-52.083 17.5,-52.958c10.042,-0.875 15.334,23.833 15.334,23.833Z" style="fill:#1530a3;fill-rule:nonzero;"/><path d="M1867.06,1634.44l-46.291,59.749c0,0 -89.625,79.875 -90.459,79.875c1.167,-1.75 133.334,-173.499 131.209,-197.25c1.75,19 3.625,38.376 5.541,57.626Z" style="fill:#febc46;fill-rule:nonzero;"/><path d="M2208.81,1780.56l10.417,0.791c-3.484,-0.072 -6.962,-0.337 -10.417,-0.792l0,0.001Z" style="fill:#fff;fill-rule:nonzero;"/><path d="M2228.06,1834.23l5.875,0c-1.957,0.105 -3.918,0.105 -5.875,0Z" style="fill:#fff;fill-rule:nonzero;"/><path d="M2284.02,2131.94c0,-0.001 36.166,-41.042 33.875,-71.376c-2.292,-30.333 -19.834,-157.541 -23.334,-191.333c-3,-29.166 -43.625,-34.25 -60.458,-34.958c30.667,-1.333 68.458,-27.583 66.292,-37.5c-1.834,-8.125 -56.167,-13.417 -80.542,-15.375c20.096,0.381 40.145,-2.103 59.542,-7.375c28.5,-7.542 42.333,-53.333 48.291,-82c-5.875,35.917 -10.208,62.5 -11,68c-2.833,20.833 11.709,26.875 14.042,35c2.333,8.125 -18.625,34.458 -24.542,50.792c-5.916,16.333 39.709,249.75 39.709,249.75c-18.027,16.082 -39.056,28.445 -61.875,36.375Z" style="fill:#cbcbcb;fill-rule:nonzero;"/><path d="M2085.06,2339.52c-2.583,-9.667 -4.791,-15.167 -6.416,-15.167c-12.834,0 -85.167,238.042 -73.542,266.042c11.625,28 59.542,371.125 59.542,371.125c-8.179,10.628 -19.161,18.767 -31.709,23.5c-12.547,4.732 25,-18.542 19.709,-59.708c-5.292,-41.167 -54.167,-328.25 -80.5,-355.334c0,0 23.666,7 29.833,-32.416c6.167,-39.417 66.667,-264.625 66.667,-264.625c0,0 8.375,30.208 16.416,66.583Z" style="fill:#01008a;fill-rule:nonzero;"/></svg>